<svg xmlns="http://www.w3.org/2000/svg" viewBox="0 0 74 92.5" x="0px" y="0px"><title>1</title>
<style type="text/css">
   
    .fil0 {fill:#ffffff;fill-rule:nonzero}
   
  </style>
<path class="fil0"  d="M22.957,65.886a1,1,0,0,1-.707-.293L8.407,51.75a1,1,0,0,1,0-1.414L53.438,5.306A10.788,10.788,0,0,1,68.694,20.563l-45.03,45.03A1,1,0,0,1,22.957,65.886ZM10.528,51.043,22.957,63.472,67.28,19.148A8.788,8.788,0,1,0,54.852,6.72Z"/><path class="fil0"  d="M3.146,71.854a1,1,0,0,1-.957-1.289l5.968-19.81a1,1,0,0,1,1.664-.419L23.664,64.179a1,1,0,0,1-.419,1.664L3.435,71.811A.987.987,0,0,1,3.146,71.854ZM9.589,52.933,4.641,69.359l16.426-4.948Z"/><path class="fil0"  d="M60.358,28.484a1,1,0,0,1-.707-.293L45.809,14.349a1,1,0,1,1,1.414-1.414L61.065,26.777a1,1,0,0,1-.707,1.707Z"/><path class="fil0"  d="M16.035,58.965a1,1,0,0,1-.707-1.707l37.4-37.4a1,1,0,1,1,1.415,1.415l-37.4,37.4A1,1,0,0,1,16.035,58.965Z"/><path class="fil0"  d="M53.632,72h-.01a3.1,3.1,0,0,1-2.213-.927l-4.7-4.7a.882.882,0,0,1-.085-.077l-6.335-6.343a.894.894,0,0,1-.085-.077l-6.111-6.12a1,1,0,1,1,1.415-1.413l6.035,6.044a.885.885,0,0,1,.085.076l6.335,6.344a1.024,1.024,0,0,1,.085.076l4.78,4.78a1.121,1.121,0,0,0,.8.337h0a1.141,1.141,0,0,0,.812-.337l15.22-15.22A1.141,1.141,0,0,0,70,53.628a1.113,1.113,0,0,0-.333-.8L52.343,35.507a1,1,0,1,1,1.414-1.414l17.32,17.32a3.136,3.136,0,0,1,0,4.444l-15.22,15.22A3.127,3.127,0,0,1,53.632,72Z"/><path class="fil0"  d="M20.95,40.2a.993.993,0,0,1-.707-.293L2.923,22.587a3.136,3.136,0,0,1,0-4.444l15.22-15.22A3.127,3.127,0,0,1,20.368,2h.01a3.1,3.1,0,0,1,2.213.927L39.907,20.243a1,1,0,1,1-1.414,1.414L21.173,4.337a1.121,1.121,0,0,0-.8-.337h0a1.142,1.142,0,0,0-.812.337L4.337,19.557A1.141,1.141,0,0,0,4,20.372a1.113,1.113,0,0,0,.333.8L21.657,38.493A1,1,0,0,1,20.95,40.2Z"/><path class="fil0"  d="M15.229,34.484a1,1,0,0,1-.707-1.707l3.031-3.03a1,1,0,0,1,1.414,1.414l-3.03,3.03A1,1,0,0,1,15.229,34.484Z"/><path class="fil0"  d="M40.914,60.168a1,1,0,0,1-.707-1.707l3.03-3.03a1,1,0,0,1,1.414,1.414l-3.03,3.03A1,1,0,0,1,40.914,60.168Z"/><path class="fil0"  d="M47.335,66.59a1,1,0,0,1-.707-1.707l4.546-4.546a1,1,0,1,1,1.414,1.414L48.042,66.3A1,1,0,0,1,47.335,66.59Z"/><path class="fil0"  d="M17.6,21.993a4.4,4.4,0,1,1,3.11-1.286A4.386,4.386,0,0,1,17.6,21.993Zm0-6.793a2.4,2.4,0,1,0,1.7.7A2.394,2.394,0,0,0,17.6,15.2Z"/></svg>