<?xml version="1.0" encoding="UTF-8"?>
<svg width="1200pt" height="1200pt" version="1.1" viewBox="0 0 1200 1200" xmlns="http://www.w3.org/2000/svg">
<style type="text/css">
   
    .fil0 {fill:#ffffff;fill-rule:nonzero}
   
  </style>
 <path class="fil0"  d="m1087.2 648h-117.6l-96-301.2c37.199-9.6016 116.4-28.801 213.6-31.199 13.199 0 24-10.801 24-24 0-13.199-10.801-24-24-24-142.8 3.6016-247.2 38.398-250.8 39.602-12 4.8008-19.199 18-15.602 30v2.3984c-52.797-16.801-145.2-39.602-243.6-32.402-39.602 2.3984-69.602 20.398-94.801 40.801h-111.6c1.1992-4.8008 2.3984-8.3984 3.6016-12 2.3984-6 1.1992-13.199-2.3984-18-3.6016-6-8.3984-9.6016-14.398-12-116.4-32.398-238.8-38.398-243.6-38.398-13.199 0-24 9.6016-25.199 22.801 0 13.199 9.6016 24 22.801 25.199 1.1992 0 105.6 4.8008 210 30-32.398 109.2-76.801 253.2-91.199 302.4h-117.6c-13.199 0-24 10.801-24 24s10.801 24 24 24h134.4c8.3984 0 15.602-3.6016 19.199-9.6016 26.398 32.398 69.602 81.602 118.8 127.2 81.602 75.602 148.8 114 202.8 114 15.602 0 30-3.6016 43.199-9.6016 16.801 10.801 32.398 16.801 48 16.801 12 0 24-3.6016 33.602-10.801 14.398-10.801 22.801-24 26.398-34.801 9.6016 3.6016 20.398 7.1992 31.199 7.1992 13.199 0 26.398-3.6016 39.602-14.398 14.398-12 24-28.801 25.199-46.801h3.6016c36 0 64.801-28.801 64.801-64.801 0-14.398-4.8008-27.602-13.199-38.398 0 0 0-1.1992-1.1992-1.1992-2.3984-3.6016-6-7.1992-8.3984-10.801l54-30c4.8008 4.8008 10.801 8.3984 18 8.3984h135.6c13.199 0 24-10.801 24-24-0.007812-13.195-12.008-26.395-25.207-26.395zm-248.4 136.8c-4.8008 0-9.6016-2.3984-13.199-6 0-1.1992-1.1992-1.1992-1.1992-1.1992l-129.6-129.6c-9.6016-9.6016-25.199-9.6016-33.602 0-9.6016 9.6016-9.6016 25.199 0 33.602l111.6 110.4c6 6 15.602 21.602 15.602 34.801 0 3.6016-1.1992 9.6016-8.3984 15.602-13.199 10.801-37.199-9.6016-39.602-12l-139.2-142.8c-9.6016-9.6016-24-9.6016-33.602-1.1992-9.6016 9.6016-9.6016 24-1.1992 33.602l116.4 121.2c8.3984 8.3984 12 18 12 24s-4.8008 10.801-12 16.801-28.801-6-49.199-27.602l-126-132c-9.6016-9.6016-24-9.6016-33.602-1.1992-9.6016 9.6016-9.6016 24-1.1992 33.602l115.2 121.2c-81.602 2.3984-230.4-152.4-303.6-247.2 18.004-52.805 46.805-148.8 72.004-232.8h75.602c-48 51.602-79.199 116.4-46.801 156 16.801 20.398 40.801 31.199 68.398 31.199 34.801-1.1992 70.801-19.199 98.398-50.398 15.602 0 36-3.6016 51.602-9.6016 39.602 30 142.8 108 248.4 235.2 1.1992 2.3984 3.6016 4.8008 3.6016 9.6016 0.003906 9.6016-7.1992 16.801-16.797 16.801zm-207.6-301.2c-4.8008-3.6016-8.3984-6-10.801-8.3984-8.3984-7.1992-21.602-7.1992-30 0-7.1992 4.8008-31.199 10.801-48 9.6016-8.3984-1.1992-16.801 2.3984-21.602 9.6016-18 24-45.602 40.801-68.398 40.801-13.199 0-22.801-4.8008-31.199-13.199-7.1992-9.6016 4.8008-52.801 55.199-102l2.3984-2.3984c28.801-27.602 57.602-57.602 100.8-60 116.4-10.809 226.8 26.391 260.4 38.391l78 244.8-68.398 38.398c-96-104.4-183.6-169.2-218.4-195.6z"/>
</svg>
