<svg xmlns="http://www.w3.org/2000/svg" width="1157" height="526" viewBox="0 0 1157 526" fill="none"><path d="M84.7895 72.7907C101.366 72.7907 115.557 78.6937 127.363 90.4999C139.169 102.187 145.072 116.318 145.072 132.895C145.072 149.948 136.486 160.502 119.314 164.557C131.716 166.345 145.788 175.17 161.529 191.031C177.39 206.892 185.321 228.834 185.321 256.859C185.321 284.884 175.482 309.092 155.805 329.485C137.321 348.685 118.777 358.404 100.173 358.642V359H26.8321V72.7907H84.7895ZM63.8605 193.177V321.793H100.173V321.256C107.806 320.779 117.286 314.638 128.615 302.831C141.137 289.952 147.398 274.628 147.398 256.859C147.398 239.329 141.137 224.362 128.615 211.96C116.213 199.438 101.247 193.177 83.7162 193.177H63.8605ZM63.8605 109.819V155.076H88.0094C93.4951 154.599 98.2056 152.512 102.141 148.815C106.434 144.88 108.581 139.573 108.581 132.895C108.581 126.216 106.315 120.731 101.783 116.438C97.3708 112.025 91.7062 109.819 84.7895 109.819H63.8605ZM265.459 72.6118V359H228.252V72.6118H265.459ZM397.115 361.504C373.861 361.504 355.138 354.409 340.947 340.218C326.756 326.026 319.481 308.257 319.123 286.911V174.932H356.331V285.48C356.331 296.094 360.206 305.216 367.958 312.849C375.709 320.481 385.369 324.297 396.937 324.297C407.55 324.297 416.733 320.541 424.484 313.028C432.355 305.395 436.29 296.213 436.29 285.48V174.932H473.319V286.911C472.961 308.257 465.746 326.026 451.674 340.218C437.483 354.409 419.297 361.504 397.115 361.504Z" fill="#104573"></path><path d="M584.94 72.7907C601.517 72.7907 615.708 78.6937 627.514 90.4999C639.32 102.187 645.223 116.318 645.223 132.895C645.223 149.948 636.637 160.502 619.464 164.557C631.867 166.345 645.939 175.17 661.68 191.031C677.541 206.892 685.471 228.834 685.471 256.859C685.471 284.884 675.633 309.092 655.956 329.485C637.472 348.685 618.928 358.404 600.324 358.642V359H526.983V72.7907H584.94ZM564.011 193.177V321.793H600.324V321.256C607.956 320.779 617.437 314.638 628.766 302.831C641.288 289.952 647.549 274.628 647.549 256.859C647.549 239.329 641.288 224.362 628.766 211.96C616.364 199.438 601.397 193.177 583.867 193.177H564.011ZM564.011 109.819V155.076H588.16C593.646 154.599 598.356 152.512 602.292 148.815C606.585 144.88 608.732 139.573 608.732 132.895C608.732 126.216 606.466 120.731 601.934 116.438C597.522 112.025 591.857 109.819 584.94 109.819H564.011ZM887.965 275.642V248.452C885.818 236.884 880.094 226.39 870.792 216.969C858.27 204.566 843.244 198.365 825.714 198.365C808.064 198.365 792.979 204.566 780.457 216.969C768.055 229.371 761.854 244.397 761.854 262.047C761.854 279.577 768.055 294.603 780.457 307.125C792.979 319.527 808.064 325.728 825.714 325.728C843.244 325.728 858.27 319.527 870.792 307.125C880.094 297.703 885.818 287.209 887.965 275.642ZM887.965 187.811V174.932H925.172V359.179H887.965V336.103C870.076 354.588 849.326 363.83 825.714 363.83C797.57 363.83 773.54 353.932 753.625 334.136C733.829 314.22 723.931 290.191 723.931 262.047C723.931 233.903 733.829 209.933 753.625 190.136C773.54 170.221 797.57 160.263 825.714 160.263C849.326 160.263 870.076 169.446 887.965 187.811ZM1024.45 420.893H985.276L1034.29 318.036L965.778 174.932H1007.46L1054.14 275.642L1100.83 174.932H1142.33L1024.45 420.893Z" fill="#51B8C6"></path><path d="M38.2461 438.601V463.508H68.0716V472.466H38.2461V504H27.1651V429.643H73.2496V438.601H38.2461ZM104.641 480.647C100.533 480.785 97.0462 481.113 94.181 481.631C91.3159 482.114 88.9858 482.77 87.1907 483.599C85.3956 484.427 84.1011 485.411 83.3072 486.55C82.5132 487.655 82.1162 488.897 82.1162 490.278C82.1162 491.59 82.3233 492.729 82.7376 493.696C83.1863 494.628 83.7732 495.404 84.4981 496.026C85.2576 496.613 86.1378 497.044 87.1389 497.32C88.14 497.596 89.2274 497.735 90.4011 497.735C91.9545 497.735 93.3698 497.579 94.6471 497.269C95.9588 496.958 97.1843 496.526 98.3235 495.974C99.4626 495.387 100.55 494.68 101.586 493.851C102.621 493.023 103.64 492.073 104.641 491.003V480.647ZM75.0223 458.744C77.9565 455.948 81.1324 453.859 84.5499 452.479C88.0019 451.098 91.7819 450.407 95.8898 450.407C98.8931 450.407 101.551 450.908 103.864 451.909C106.177 452.876 108.127 454.239 109.715 456C111.303 457.76 112.494 459.866 113.288 462.317C114.116 464.768 114.531 467.478 114.531 470.446V504H110.026C109.025 504 108.265 503.845 107.748 503.534C107.23 503.189 106.815 502.567 106.505 501.67L105.417 497.061C104.071 498.304 102.742 499.409 101.43 500.375C100.119 501.307 98.7377 502.119 97.2879 502.809C95.8725 503.465 94.3536 503.965 92.7312 504.311C91.1087 504.656 89.3137 504.828 87.346 504.828C85.2748 504.828 83.3244 504.552 81.4949 504C79.6998 503.413 78.1291 502.533 76.7828 501.359C75.4366 500.186 74.3664 498.718 73.5725 496.958C72.813 495.197 72.4333 493.143 72.4333 490.796C72.4333 488.725 72.9856 486.74 74.0903 484.841C75.2294 482.908 77.059 481.182 79.579 479.663C82.1335 478.144 85.4474 476.902 89.5208 475.935C93.6287 474.968 98.6687 474.416 104.641 474.278V470.446C104.641 466.476 103.795 463.508 102.103 461.54C100.412 459.572 97.9265 458.589 94.6471 458.589C92.4378 458.589 90.5737 458.865 89.0548 459.417C87.5704 459.969 86.2759 460.591 85.1713 461.281C84.1011 461.937 83.1518 462.541 82.3233 463.094C81.5294 463.646 80.7009 463.922 79.8379 463.922C79.1475 463.922 78.5434 463.732 78.0256 463.352C77.5423 462.973 77.1453 462.524 76.8346 462.006L75.0223 458.744ZM137.575 461.488C139.267 458.036 141.304 455.326 143.685 453.359C146.067 451.391 148.933 450.407 152.281 450.407C153.42 450.407 154.49 450.545 155.491 450.822C156.527 451.063 157.425 451.443 158.184 451.961L157.511 459.572C157.269 460.504 156.7 460.971 155.802 460.971C155.319 460.971 154.594 460.884 153.627 460.712C152.661 460.504 151.625 460.401 150.521 460.401C148.898 460.401 147.465 460.643 146.223 461.126C144.98 461.575 143.858 462.265 142.857 463.197C141.89 464.095 141.027 465.217 140.268 466.563C139.509 467.875 138.801 469.376 138.145 471.068V504H128.048V451.391H133.847C134.952 451.391 135.694 451.598 136.074 452.013C136.488 452.392 136.781 453.083 136.954 454.084L137.575 461.488ZM165.973 504V451.391H172.031C173.447 451.391 174.327 452.064 174.672 453.411L175.397 458.433C177.33 456.12 179.47 454.239 181.818 452.789C184.2 451.305 186.978 450.563 190.154 450.563C193.641 450.563 196.472 451.529 198.646 453.462C200.821 455.361 202.409 457.95 203.41 461.229C204.17 459.365 205.153 457.76 206.362 456.414C207.57 455.068 208.916 453.963 210.4 453.1C211.885 452.237 213.455 451.598 215.112 451.184C216.804 450.77 218.513 450.563 220.239 450.563C223.035 450.563 225.52 451.011 227.695 451.909C229.904 452.772 231.768 454.049 233.287 455.741C234.806 457.432 235.963 459.521 236.757 462.006C237.551 464.492 237.948 467.322 237.948 470.498V504H227.799V470.498C227.799 466.563 226.936 463.594 225.21 461.592C223.518 459.59 221.033 458.589 217.753 458.589C216.303 458.589 214.923 458.848 213.611 459.365C212.299 459.849 211.143 460.591 210.142 461.592C209.175 462.593 208.398 463.836 207.811 465.32C207.259 466.804 206.983 468.53 206.983 470.498V504H196.834V470.498C196.834 466.425 196.023 463.421 194.4 461.488C192.778 459.555 190.396 458.589 187.255 458.589C185.08 458.589 183.06 459.158 181.196 460.297C179.332 461.437 177.623 462.99 176.07 464.958V504H165.973ZM357.985 429.643V504H348.354V451.08C348.354 450.287 348.371 449.441 348.406 448.543C348.475 447.646 348.544 446.731 348.613 445.799L323.862 491.21C322.999 492.902 321.67 493.747 319.875 493.747H318.321C316.526 493.747 315.214 492.902 314.386 491.21L289.169 445.644C289.376 447.577 289.48 449.389 289.48 451.08V504H279.797V429.643H287.978C288.945 429.643 289.687 429.747 290.205 429.954C290.757 430.127 291.275 430.644 291.758 431.507L316.612 476.039C317.096 476.936 317.545 477.885 317.959 478.887C318.373 479.888 318.77 480.889 319.15 481.89C319.875 479.853 320.72 477.885 321.687 475.987L346.076 431.507C346.524 430.644 347.008 430.127 347.525 429.954C348.078 429.747 348.837 429.643 349.804 429.643H357.985ZM401.063 480.647C396.955 480.785 393.469 481.113 390.603 481.631C387.738 482.114 385.408 482.77 383.613 483.599C381.818 484.427 380.523 485.411 379.73 486.55C378.936 487.655 378.539 488.897 378.539 490.278C378.539 491.59 378.746 492.729 379.16 493.696C379.609 494.628 380.196 495.404 380.92 496.026C381.68 496.613 382.56 497.044 383.561 497.32C384.562 497.596 385.65 497.735 386.823 497.735C388.377 497.735 389.792 497.579 391.069 497.269C392.381 496.958 393.607 496.526 394.746 495.974C395.885 495.387 396.972 494.68 398.008 493.851C399.044 493.023 400.062 492.073 401.063 491.003V480.647ZM371.445 458.744C374.379 455.948 377.555 453.859 380.972 452.479C384.424 451.098 388.204 450.407 392.312 450.407C395.315 450.407 397.973 450.908 400.286 451.909C402.599 452.876 404.55 454.239 406.137 456C407.725 457.76 408.916 459.866 409.71 462.317C410.539 464.768 410.953 467.478 410.953 470.446V504H406.448C405.447 504 404.688 503.845 404.17 503.534C403.652 503.189 403.238 502.567 402.927 501.67L401.84 497.061C400.493 498.304 399.164 499.409 397.853 500.375C396.541 501.307 395.16 502.119 393.71 502.809C392.295 503.465 390.776 503.965 389.154 504.311C387.531 504.656 385.736 504.828 383.768 504.828C381.697 504.828 379.747 504.552 377.917 504C376.122 503.413 374.551 502.533 373.205 501.359C371.859 500.186 370.789 498.718 369.995 496.958C369.235 495.197 368.856 493.143 368.856 490.796C368.856 488.725 369.408 486.74 370.513 484.841C371.652 482.908 373.481 481.182 376.001 479.663C378.556 478.144 381.87 476.902 385.943 475.935C390.051 474.968 395.091 474.416 401.063 474.278V470.446C401.063 466.476 400.217 463.508 398.526 461.54C396.834 459.572 394.349 458.589 391.069 458.589C388.86 458.589 386.996 458.865 385.477 459.417C383.993 459.969 382.698 460.591 381.594 461.281C380.523 461.937 379.574 462.541 378.746 463.094C377.952 463.646 377.123 463.922 376.26 463.922C375.57 463.922 374.966 463.732 374.448 463.352C373.965 462.973 373.568 462.524 373.257 462.006L371.445 458.744ZM433.946 458.692C435.085 457.484 436.276 456.379 437.519 455.378C438.762 454.377 440.073 453.531 441.454 452.841C442.869 452.116 444.371 451.564 445.959 451.184C447.581 450.77 449.307 450.563 451.137 450.563C454.037 450.563 456.574 451.046 458.749 452.013C460.958 452.979 462.805 454.343 464.289 456.103C465.774 457.829 466.896 459.918 467.655 462.369C468.414 464.82 468.794 467.529 468.794 470.498V504H458.645V470.498C458.645 466.735 457.782 463.818 456.056 461.747C454.33 459.641 451.689 458.589 448.134 458.589C445.545 458.589 443.111 459.21 440.833 460.453C438.589 461.661 436.5 463.318 434.567 465.424V504H424.47V451.391H430.528C431.944 451.391 432.824 452.064 433.169 453.411L433.946 458.692ZM510.692 480.647C506.584 480.785 503.097 481.113 500.232 481.631C497.367 482.114 495.037 482.77 493.242 483.599C491.447 484.427 490.152 485.411 489.358 486.55C488.564 487.655 488.167 488.897 488.167 490.278C488.167 491.59 488.374 492.729 488.789 493.696C489.237 494.628 489.824 495.404 490.549 496.026C491.309 496.613 492.189 497.044 493.19 497.32C494.191 497.596 495.278 497.735 496.452 497.735C498.006 497.735 499.421 497.579 500.698 497.269C502.01 496.958 503.235 496.526 504.375 495.974C505.514 495.387 506.601 494.68 507.637 493.851C508.672 493.023 509.691 492.073 510.692 491.003V480.647ZM481.073 458.744C484.008 455.948 487.183 453.859 490.601 452.479C494.053 451.098 497.833 450.407 501.941 450.407C504.944 450.407 507.602 450.908 509.915 451.909C512.228 452.876 514.178 454.239 515.766 456C517.354 457.76 518.545 459.866 519.339 462.317C520.168 464.768 520.582 467.478 520.582 470.446V504H516.077C515.076 504 514.316 503.845 513.799 503.534C513.281 503.189 512.867 502.567 512.556 501.67L511.468 497.061C510.122 498.304 508.793 499.409 507.481 500.375C506.17 501.307 504.789 502.119 503.339 502.809C501.924 503.465 500.405 503.965 498.782 504.311C497.16 504.656 495.365 504.828 493.397 504.828C491.326 504.828 489.376 504.552 487.546 504C485.751 503.413 484.18 502.533 482.834 501.359C481.488 500.186 480.418 498.718 479.624 496.958C478.864 495.197 478.484 493.143 478.484 490.796C478.484 488.725 479.037 486.74 480.141 484.841C481.281 482.908 483.11 481.182 485.63 479.663C488.185 478.144 491.499 476.902 495.572 475.935C499.68 474.968 504.72 474.416 510.692 474.278V470.446C510.692 466.476 509.846 463.508 508.155 461.54C506.463 459.572 503.978 458.589 500.698 458.589C498.489 458.589 496.625 458.865 495.106 459.417C493.622 459.969 492.327 460.591 491.222 461.281C490.152 461.937 489.203 462.541 488.374 463.094C487.58 463.646 486.752 463.922 485.889 463.922C485.199 463.922 484.594 463.732 484.077 463.352C483.593 462.973 483.196 462.524 482.886 462.006L481.073 458.744ZM552.585 477.747C554.38 477.747 555.95 477.506 557.297 477.022C558.677 476.539 559.816 475.866 560.714 475.003C561.646 474.105 562.336 473.035 562.785 471.793C563.269 470.55 563.51 469.186 563.51 467.702C563.51 464.664 562.578 462.248 560.714 460.453C558.884 458.623 556.175 457.708 552.585 457.708C549.029 457.708 546.319 458.623 544.455 460.453C542.625 462.248 541.711 464.664 541.711 467.702C541.711 469.186 541.935 470.55 542.384 471.793C542.867 473.001 543.557 474.054 544.455 474.951C545.387 475.814 546.526 476.505 547.872 477.022C549.253 477.506 550.824 477.747 552.585 477.747ZM568.688 506.744C568.688 505.502 568.343 504.518 567.653 503.793C566.962 503.033 566.013 502.447 564.805 502.032C563.631 501.584 562.25 501.273 560.662 501.1C559.074 500.893 557.4 500.738 555.64 500.634C553.914 500.531 552.136 500.444 550.306 500.375C548.477 500.272 546.716 500.099 545.025 499.858C543.23 500.755 541.745 501.842 540.571 503.12C539.432 504.397 538.863 505.899 538.863 507.625C538.863 508.729 539.139 509.765 539.691 510.731C540.278 511.698 541.158 512.526 542.332 513.217C543.54 513.942 545.042 514.494 546.837 514.874C548.666 515.288 550.841 515.495 553.361 515.495C555.847 515.495 558.039 515.271 559.937 514.822C561.836 514.408 563.424 513.804 564.701 513.01C566.013 512.25 566.997 511.336 567.653 510.265C568.343 509.195 568.688 508.022 568.688 506.744ZM578.941 453.359V457.139C578.941 458.382 578.164 459.158 576.611 459.469L570.967 460.297C571.45 461.368 571.83 462.507 572.106 463.715C572.382 464.889 572.52 466.131 572.52 467.443C572.52 470.032 572.019 472.379 571.018 474.485C570.017 476.556 568.636 478.334 566.876 479.819C565.115 481.303 563.01 482.442 560.559 483.236C558.142 484.03 555.484 484.427 552.585 484.427C550.203 484.427 547.976 484.168 545.905 483.65C544.869 484.272 544.075 484.962 543.523 485.722C543.005 486.446 542.746 487.171 542.746 487.896C542.746 489.105 543.247 490.002 544.248 490.589C545.283 491.176 546.613 491.607 548.235 491.883C549.892 492.125 551.773 492.28 553.879 492.349C556.019 492.418 558.177 492.539 560.352 492.712C562.561 492.85 564.718 493.126 566.824 493.54C568.964 493.92 570.846 494.559 572.468 495.456C574.125 496.319 575.454 497.527 576.455 499.081C577.491 500.6 578.009 502.585 578.009 505.036C578.009 507.314 577.439 509.523 576.3 511.663C575.195 513.804 573.573 515.702 571.433 517.359C569.292 519.016 566.686 520.345 563.614 521.346C560.541 522.348 557.055 522.848 553.154 522.848C549.253 522.848 545.853 522.468 542.953 521.709C540.088 520.949 537.689 519.931 535.756 518.654C533.857 517.377 532.425 515.892 531.458 514.201C530.526 512.509 530.06 510.749 530.06 508.919C530.06 506.365 530.854 504.207 532.442 502.447C534.03 500.652 536.222 499.253 539.018 498.252C537.499 497.562 536.291 496.63 535.393 495.456C534.496 494.248 534.047 492.66 534.047 490.692C534.047 489.933 534.185 489.156 534.461 488.362C534.738 487.534 535.152 486.723 535.704 485.929C536.291 485.1 536.999 484.323 537.827 483.599C538.69 482.874 539.674 482.218 540.779 481.631C538.19 480.181 536.153 478.265 534.668 475.883C533.184 473.467 532.442 470.653 532.442 467.443C532.442 464.854 532.942 462.524 533.944 460.453C534.945 458.382 536.325 456.604 538.086 455.119C539.881 453.635 542.004 452.496 544.455 451.702C546.94 450.908 549.65 450.511 552.585 450.511C557.141 450.511 561.059 451.46 564.339 453.359H578.941ZM622.244 471.844C622.244 469.842 621.951 467.995 621.364 466.304C620.812 464.612 619.983 463.145 618.879 461.903C617.774 460.66 616.428 459.693 614.84 459.003C613.252 458.312 611.422 457.967 609.351 457.967C605.105 457.967 601.757 459.193 599.306 461.644C596.889 464.095 595.353 467.495 594.697 471.844H622.244ZM630.581 496.492C629.338 497.942 627.906 499.202 626.283 500.272C624.661 501.307 622.935 502.153 621.105 502.809C619.276 503.465 617.377 503.948 615.409 504.259C613.476 504.57 611.56 504.725 609.662 504.725C606.037 504.725 602.671 504.121 599.565 502.913C596.492 501.67 593.817 499.875 591.539 497.527C589.295 495.146 587.534 492.211 586.257 488.725C585.014 485.204 584.393 481.165 584.393 476.608C584.393 472.949 584.963 469.549 586.102 466.407C587.241 463.232 588.863 460.47 590.969 458.123C593.109 455.775 595.716 453.928 598.788 452.582C601.86 451.236 605.312 450.563 609.144 450.563C612.354 450.563 615.306 451.098 617.998 452.168C620.726 453.203 623.073 454.722 625.041 456.725C627.008 458.727 628.544 461.195 629.649 464.129C630.788 467.063 631.358 470.412 631.358 474.175C631.358 475.728 631.185 476.781 630.84 477.333C630.495 477.851 629.856 478.11 628.924 478.11H594.438C594.542 481.251 594.991 483.996 595.785 486.343C596.579 488.656 597.666 490.589 599.047 492.142C600.462 493.696 602.136 494.852 604.07 495.612C606.003 496.371 608.16 496.751 610.542 496.751C612.786 496.751 614.719 496.492 616.342 495.974C617.998 495.456 619.414 494.904 620.587 494.317C621.796 493.696 622.797 493.126 623.591 492.608C624.419 492.091 625.144 491.832 625.766 491.832C626.594 491.832 627.233 492.142 627.681 492.764L630.581 496.492ZM642.211 504V451.391H648.269C649.684 451.391 650.565 452.064 650.91 453.411L651.635 458.433C653.568 456.12 655.708 454.239 658.055 452.789C660.437 451.305 663.216 450.563 666.392 450.563C669.879 450.563 672.709 451.529 674.884 453.462C677.059 455.361 678.647 457.95 679.648 461.229C680.407 459.365 681.391 457.76 682.599 456.414C683.808 455.068 685.154 453.963 686.638 453.1C688.123 452.237 689.693 451.598 691.35 451.184C693.042 450.77 694.75 450.563 696.476 450.563C699.273 450.563 701.758 451.011 703.933 451.909C706.142 452.772 708.006 454.049 709.525 455.741C711.044 457.432 712.2 459.521 712.994 462.006C713.788 464.492 714.185 467.322 714.185 470.498V504H704.036V470.498C704.036 466.563 703.173 463.594 701.447 461.592C699.756 459.59 697.27 458.589 693.991 458.589C692.541 458.589 691.16 458.848 689.849 459.365C688.537 459.849 687.38 460.591 686.379 461.592C685.413 462.593 684.636 463.836 684.049 465.32C683.497 466.804 683.221 468.53 683.221 470.498V504H673.072V470.498C673.072 466.425 672.26 463.421 670.638 461.488C669.016 459.555 666.634 458.589 663.492 458.589C661.318 458.589 659.298 459.158 657.434 460.297C655.57 461.437 653.861 462.99 652.308 464.958V504H642.211ZM762.618 471.844C762.618 469.842 762.324 467.995 761.737 466.304C761.185 464.612 760.357 463.145 759.252 461.903C758.147 460.66 756.801 459.693 755.213 459.003C753.625 458.312 751.796 457.967 749.724 457.967C745.478 457.967 742.13 459.193 739.679 461.644C737.263 464.095 735.726 467.495 735.071 471.844H762.618ZM770.954 496.492C769.712 497.942 768.279 499.202 766.657 500.272C765.034 501.307 763.308 502.153 761.479 502.809C759.649 503.465 757.75 503.948 755.783 504.259C753.85 504.57 751.934 504.725 750.035 504.725C746.41 504.725 743.045 504.121 739.938 502.913C736.866 501.67 734.19 499.875 731.912 497.527C729.668 495.146 727.908 492.211 726.63 488.725C725.388 485.204 724.766 481.165 724.766 476.608C724.766 472.949 725.336 469.549 726.475 466.407C727.614 463.232 729.237 460.47 731.342 458.123C733.483 455.775 736.089 453.928 739.161 452.582C742.234 451.236 745.686 450.563 749.517 450.563C752.728 450.563 755.679 451.098 758.372 452.168C761.099 453.203 763.446 454.722 765.414 456.725C767.382 458.727 768.918 461.195 770.022 464.129C771.162 467.063 771.731 470.412 771.731 474.175C771.731 475.728 771.558 476.781 771.213 477.333C770.868 477.851 770.229 478.11 769.297 478.11H734.812C734.915 481.251 735.364 483.996 736.158 486.343C736.952 488.656 738.039 490.589 739.42 492.142C740.835 493.696 742.51 494.852 744.443 495.612C746.376 496.371 748.533 496.751 750.915 496.751C753.159 496.751 755.092 496.492 756.715 495.974C758.372 495.456 759.787 494.904 760.961 494.317C762.169 493.696 763.17 493.126 763.964 492.608C764.793 492.091 765.517 491.832 766.139 491.832C766.967 491.832 767.606 492.142 768.055 492.764L770.954 496.492ZM792.06 458.692C793.199 457.484 794.39 456.379 795.633 455.378C796.875 454.377 798.187 453.531 799.568 452.841C800.983 452.116 802.485 451.564 804.073 451.184C805.695 450.77 807.421 450.563 809.251 450.563C812.151 450.563 814.688 451.046 816.863 452.013C819.072 452.979 820.919 454.343 822.403 456.103C823.887 457.829 825.009 459.918 825.769 462.369C826.528 464.82 826.908 467.529 826.908 470.498V504H816.759V470.498C816.759 466.735 815.896 463.818 814.17 461.747C812.444 459.641 809.803 458.589 806.248 458.589C803.659 458.589 801.225 459.21 798.947 460.453C796.703 461.661 794.614 463.318 792.681 465.424V504H782.584V451.391H788.642C790.058 451.391 790.938 452.064 791.283 453.411L792.06 458.692ZM856.292 504.828C852.046 504.828 848.766 503.638 846.453 501.256C844.175 498.874 843.036 495.474 843.036 491.055V459.572H836.926C836.339 459.572 835.838 459.4 835.424 459.055C835.044 458.675 834.855 458.123 834.855 457.398V453.307L843.398 452.116L845.677 436.427C845.815 435.84 846.074 435.391 846.453 435.08C846.868 434.735 847.385 434.563 848.007 434.563H853.133V452.22H868.046V459.572H853.133V490.382C853.133 492.453 853.634 494.006 854.635 495.042C855.67 496.043 856.982 496.544 858.57 496.544C859.502 496.544 860.296 496.423 860.952 496.181C861.642 495.94 862.229 495.681 862.712 495.404C863.196 495.094 863.61 494.818 863.955 494.576C864.3 494.334 864.611 494.214 864.887 494.214C865.232 494.214 865.491 494.3 865.664 494.472C865.871 494.61 866.078 494.852 866.285 495.197L869.289 500.065C867.632 501.584 865.664 502.757 863.386 503.586C861.107 504.414 858.743 504.828 856.292 504.828Z" fill="#58595B"></path></svg>