<svg xmlns="http://www.w3.org/2000/svg" xmlns:xlink="http://www.w3.org/1999/xlink" version="1.1" x="0px" y="0px" viewBox="0 0 64 80" style="enable-background:new 0 0 64 64;" xml:space="preserve"><g>
<style type="text/css">
   
    .fil0 {fill:#ffffff;fill-rule:nonzero}
   
  </style><path class="fil0"  d="M62,27h-2.448c-0.736-4.07-2.385-7.954-4.81-11.327l1.965-1.966c0.391-0.391,0.391-1.023,0-1.414l-5-5   c-0.375-0.375-1.039-0.375-1.414,0l-1.965,1.966C44.954,6.833,41.069,5.184,37,4.448V2c0-0.553-0.448-1-1-1h-8   c-0.552,0-1,0.447-1,1v2.448c-4.069,0.735-7.954,2.385-11.328,4.811l-1.965-1.966C13.52,7.105,13.265,7,13,7   s-0.52,0.105-0.707,0.293l-5,5c-0.391,0.391-0.391,1.023,0,1.414l1.965,1.966C6.833,19.046,5.184,22.93,4.448,27H2   c-0.552,0-1,0.447-1,1v8c0,0.553,0.448,1,1,1h2.448c0.736,4.07,2.385,7.954,4.81,11.327l-1.965,1.966   c-0.391,0.391-0.391,1.023,0,1.414l5,5c0.375,0.375,1.039,0.375,1.414,0l1.965-1.966c3.374,2.426,7.258,4.075,11.328,4.811V62   c0,0.553,0.448,1,1,1h8c0.552,0,1-0.447,1-1v-2.448c4.069-0.735,7.954-2.385,11.328-4.811l1.965,1.966   C50.48,56.895,50.735,57,51,57s0.52-0.105,0.707-0.293l5-5c0.391-0.391,0.391-1.023,0-1.414l-1.965-1.966   c2.425-3.373,4.074-7.257,4.81-11.327H62c0.552,0,1-0.447,1-1v-8C63,27.447,62.552,27,62,27z M61,35h-2.297   c-0.496,0-0.917,0.363-0.989,0.854c-0.643,4.332-2.401,8.469-5.083,11.961c-0.306,0.398-0.269,0.962,0.086,1.316L54.586,51   L51,54.586l-1.869-1.869c-0.354-0.355-0.917-0.393-1.316-0.086c-3.494,2.683-7.63,4.44-11.962,5.083   C35.363,57.787,35,58.208,35,58.703V61h-6v-2.297c0-0.495-0.363-0.916-0.853-0.989c-4.332-0.643-8.468-2.4-11.962-5.083   c-0.398-0.306-0.961-0.27-1.316,0.086L13,54.586L9.414,51l1.869-1.869c0.355-0.354,0.392-0.918,0.086-1.316   c-2.682-3.492-4.439-7.629-5.083-11.961C6.213,35.363,5.792,35,5.297,35H3v-6h2.297c0.496,0,0.917-0.363,0.989-0.854   c0.643-4.332,2.401-8.469,5.083-11.961c0.306-0.398,0.269-0.962-0.086-1.316L9.414,13L13,9.414l1.869,1.869   c0.354,0.355,0.917,0.393,1.316,0.086c3.494-2.683,7.63-4.44,11.962-5.083C28.637,6.213,29,5.792,29,5.297V3h6v2.297   c0,0.495,0.363,0.916,0.853,0.989c4.332,0.643,8.468,2.4,11.962,5.083c0.4,0.308,0.962,0.27,1.316-0.086L51,9.414L54.586,13   l-1.869,1.869c-0.355,0.354-0.392,0.918-0.086,1.316c2.682,3.492,4.439,7.629,5.083,11.961C57.787,28.637,58.208,29,58.703,29H61   V35z"/><path class="fil0"  d="M32,54v2c13.233,0,24-10.767,24-24h-2C54,44.131,44.131,54,32,54z"/><path class="fil0"  d="M32,10V8C18.767,8,8,18.767,8,32h2C10,19.869,19.869,10,32,10z"/><path class="fil0"  d="M52,32c0-11.028-8.972-20-20-20s-20,8.972-20,20s8.972,20,20,20S52,43.028,52,32z M25,21c1.103,0,2,0.897,2,2s-0.897,2-2,2   s-2-0.897-2-2S23.897,21,25,21z M25.313,26.968C27.37,26.806,29,25.099,29,23c0-1.462-0.797-2.73-1.97-3.428   c1.094-2.849,2.505-4.738,3.97-5.341V31h-5.966C25.065,29.629,25.157,28.282,25.313,26.968z M39,43c-1.103,0-2-0.897-2-2   s0.897-2,2-2s2,0.897,2,2S40.103,43,39,43z M38.687,37.032C36.63,37.194,35,38.901,35,41c0,1.462,0.797,2.73,1.97,3.428   c-1.094,2.849-2.505,4.738-3.97,5.341V33h5.966C38.935,34.371,38.843,35.718,38.687,37.032z M33,31V14.214   c3.428,1.323,5.785,9.261,5.979,16.786H33z M31,33v16.786c-3.428-1.323-5.785-9.261-5.979-16.786H31z M36.529,49.4   c0.9-1.133,1.704-2.617,2.378-4.41C38.938,44.991,38.968,45,39,45c2.206,0,4-1.794,4-4c0-1.612-0.963-2.995-2.339-3.628   c0.172-1.424,0.273-2.885,0.305-4.372h8.983C49.511,40.913,43.952,47.466,36.529,49.4z M49.949,31h-8.971   c-0.152-7.128-1.902-13.162-4.499-16.413C43.927,16.505,49.51,23.069,49.949,31z M27.471,14.6c-0.9,1.133-1.704,2.617-2.378,4.41   C25.062,19.009,25.032,19,25,19c-2.206,0-4,1.794-4,4c0,1.612,0.963,2.995,2.339,3.628c-0.172,1.424-0.273,2.885-0.305,4.372   h-8.983C14.489,23.087,20.048,16.534,27.471,14.6z M14.051,33h8.971c0.152,7.128,1.902,13.162,4.499,16.413   C20.073,47.495,14.49,40.931,14.051,33z"/></g></svg>