<svg xmlns="http://www.w3.org/2000/svg" width="767" height="408" viewBox="0 0 767 408" fill="none"><g clip-path="url(#clip0_366_1396)"><path d="M171.643 116.546C182.427 114.271 199.446 112.585 216.779 112.585C241.484 112.585 257.366 116.86 269.287 126.506C279.209 133.879 285.169 145.251 285.169 160.27C285.169 178.701 272.974 194.897 252.817 202.269V202.857C270.974 207.406 292.267 222.426 292.267 250.817C292.267 267.287 285.758 279.757 276.072 289.13C262.739 301.325 241.17 307.012 209.956 307.012C192.936 307.012 179.878 305.874 171.643 304.737V116.546ZM196.348 194.858H218.779C244.896 194.858 260.229 181.25 260.229 162.78C260.229 140.349 243.21 131.565 218.23 131.565C206.897 131.565 200.348 132.428 196.387 133.251V194.858H196.348ZM196.348 286.542C201.171 287.404 208.269 287.679 217.053 287.679C242.582 287.679 266.15 278.306 266.15 250.503C266.15 224.386 243.719 213.602 216.779 213.602H196.348V286.542Z" fill="#1DC4E9"></path><path d="M333.129 103.762H358.109V305.247H333.129V103.762Z" fill="#1DC4E9"></path><path d="M523.555 267.797C523.555 281.993 523.83 294.463 524.692 305.247H502.536L501.124 282.817H500.536C494.027 293.875 479.517 308.345 455.126 308.345C433.558 308.345 407.715 296.424 407.715 248.19V167.878H432.695V243.955C432.695 270.072 440.655 287.679 463.361 287.679C480.105 287.679 491.752 276.033 496.301 264.974C497.713 261.288 498.576 256.739 498.576 252.19V167.878H523.555V267.797Z" fill="#1DC4E9"></path><path d="M176.192 354.501C178.074 354.108 181.447 353.834 184.78 353.834C189.133 353.834 191.839 354.344 194.035 355.912C196.035 357.128 197.407 359.206 197.407 361.951C197.407 364.932 195.525 367.638 192.035 368.932V369.01C195.446 369.873 198.544 372.539 198.544 377.01C198.544 379.873 197.289 382.147 195.446 383.676C193.133 385.676 189.368 386.696 183.447 386.696C180.192 386.696 177.682 386.461 176.192 386.265V354.501ZM182.035 367.245H185.054C189.133 367.245 191.446 365.324 191.446 362.579C191.446 359.559 189.133 358.187 185.407 358.187C183.682 358.187 182.662 358.265 182.035 358.422V367.245ZM182.035 382.108C182.819 382.186 183.8 382.265 185.133 382.265C188.937 382.265 192.27 380.814 192.27 376.853C192.27 373.128 189.015 371.598 184.937 371.598H181.996V382.147L182.035 382.108Z" fill="#666666"></path><path d="M213.367 354.501C215.563 354.108 218.897 353.834 222.269 353.834C226.936 353.834 230.073 354.618 232.23 356.422C233.994 357.912 235.014 360.148 235.014 362.893C235.014 367.049 232.19 369.912 229.171 371.01V371.167C231.485 372.03 232.857 374.265 233.681 377.402C234.7 381.441 235.563 385.167 236.23 386.421H230.151C229.681 385.48 228.896 382.814 227.995 378.814C227.093 374.579 225.563 373.245 222.191 373.167H219.21V386.461H213.367V354.579V354.501ZM219.21 368.775H222.701C226.661 368.775 229.171 366.657 229.171 363.442C229.171 359.873 226.661 358.265 222.857 358.265C220.975 358.265 219.799 358.422 219.21 358.54V368.736V368.775Z" fill="#666666"></path><path d="M278.895 369.873C278.895 380.696 272.346 386.892 263.405 386.892C254.464 386.892 248.543 379.951 248.543 370.461C248.543 360.971 254.778 353.559 263.876 353.559C272.974 353.559 278.895 360.696 278.895 369.912V369.873ZM254.778 370.343C254.778 376.892 258.072 382.147 263.758 382.147C269.444 382.147 272.66 376.892 272.66 370.108C272.66 364.03 269.64 358.265 263.758 358.265C257.876 358.265 254.778 363.677 254.778 370.343Z" fill="#666666"></path><path d="M322.188 369.873C322.188 380.696 315.639 386.892 306.698 386.892C297.757 386.892 291.836 379.951 291.836 370.461C291.836 360.971 298.071 353.559 307.169 353.559C316.267 353.559 322.188 360.696 322.188 369.912V369.873ZM298.071 370.343C298.071 376.892 301.365 382.147 307.051 382.147C312.737 382.147 315.953 376.892 315.953 370.108C315.953 364.03 312.933 358.265 307.051 358.265C301.169 358.265 298.071 363.677 298.071 370.343Z" fill="#666666"></path><path d="M336.854 354.501C339.442 354.069 342.736 353.834 346.266 353.834C352.305 353.834 356.462 355.089 359.442 357.559C362.54 360.108 364.461 363.951 364.461 369.441C364.461 374.931 362.501 379.52 359.442 382.304C356.226 385.245 351.089 386.696 344.815 386.696C341.364 386.696 338.776 386.5 336.854 386.265V354.501ZM342.736 381.872C343.56 382.029 344.815 382.029 345.991 382.029C353.677 382.069 358.226 377.873 358.226 369.677C358.265 362.54 354.148 358.461 346.776 358.461C344.893 358.461 343.56 358.618 342.736 358.814V381.912V381.872Z" fill="#666666"></path><path d="M405.127 377.205L402.343 386.342H396.265L406.617 354.029H414.147L424.656 386.342H418.343L415.401 377.205H405.127ZM414.382 372.735L411.833 364.774C411.205 362.813 410.696 360.617 410.186 358.735H410.107C409.637 360.617 409.166 362.853 408.578 364.774L406.108 372.735H414.382Z" fill="#666666"></path><path d="M438.695 386.381V354.069H445.401L453.754 367.911C455.911 371.519 457.793 375.245 459.283 378.735H459.361C458.969 374.421 458.852 370.264 458.852 365.323V354.069H464.302V386.381H458.224L449.793 372.186C447.715 368.656 445.558 364.657 443.989 361.01H443.832C444.068 365.245 444.107 369.48 444.107 374.813V386.381H438.695Z" fill="#666666"></path><path d="M480.655 354.501C483.243 354.069 486.537 353.834 490.066 353.834C496.105 353.834 500.262 355.089 503.242 357.559C506.34 360.108 508.262 363.951 508.262 369.441C508.262 374.931 506.301 379.52 503.242 382.304C500.027 385.245 494.89 386.696 488.615 386.696C485.164 386.696 482.576 386.5 480.655 386.265V354.501ZM486.537 381.872C487.36 382.029 488.615 382.029 489.792 382.029C497.478 382.069 502.027 377.873 502.027 369.677C502.066 362.54 497.948 358.461 490.576 358.461C488.694 358.461 487.36 358.618 486.537 358.814V381.912V381.872Z" fill="#666666"></path><path d="M542.34 379.951C544.261 381.049 547.124 382.029 550.143 382.029C553.947 382.029 556.025 380.265 556.025 377.637C556.025 375.206 554.378 373.755 550.261 372.265C544.928 370.343 541.555 367.52 541.555 362.853C541.555 357.598 545.947 353.559 552.967 353.559C556.457 353.559 559.045 354.344 560.731 355.206L559.28 359.951C558.143 359.324 555.869 358.422 552.849 358.422C549.124 358.422 547.477 360.422 547.477 362.304C547.477 364.775 549.359 365.951 553.673 367.637C559.28 369.755 562.025 372.578 562.025 377.206C562.025 382.382 558.104 386.892 549.751 386.892C546.339 386.892 542.81 385.951 541.045 384.892L542.34 379.99V379.951Z" fill="#666666"></path><path d="M583.084 359.01H573.868V354.069H598.26V359.01H588.966V386.381H583.084V359.01Z" fill="#666666"></path><path d="M638.964 369.873C638.964 380.696 632.416 386.892 623.475 386.892C614.534 386.892 608.612 379.951 608.612 370.461C608.612 360.971 614.847 353.559 623.945 353.559C633.043 353.559 638.964 360.696 638.964 369.912V369.873ZM614.847 370.343C614.847 376.892 618.141 382.147 623.828 382.147C629.514 382.147 632.729 376.892 632.729 370.108C632.729 364.03 629.71 358.265 623.828 358.265C617.945 358.265 614.847 363.677 614.847 370.343Z" fill="#666666"></path><path d="M676.767 385.402C675.395 386.107 672.297 386.853 668.414 386.853C658.14 386.853 651.944 380.421 651.944 370.618C651.944 359.991 659.317 353.559 669.199 353.559C673.081 353.559 675.865 354.383 677.042 355.01L675.748 359.716C674.218 359.049 672.101 358.461 669.434 358.461C662.885 358.461 658.14 362.579 658.14 370.343C658.14 377.441 662.297 381.99 669.395 381.99C671.787 381.99 674.297 381.519 675.826 380.774L676.806 385.441L676.767 385.402Z" fill="#666666"></path><path d="M691.395 354.069H697.238V368.931H697.394C698.179 367.676 698.963 366.539 699.747 365.441L708.178 354.069H715.472L704.375 367.833L716.217 386.381H709.316L700.179 371.558L697.316 375.009V386.381H691.473V354.069H691.395Z" fill="#666666"></path><path d="M44.3127 24.4696C44.3519 23.3324 44.4304 22.1952 44.4696 21.0972C44.4696 20.705 44.2343 20.4305 44.0382 20.156C39.803 13.5679 40.7834 5.88185 46.5087 0.587871C47.4499 -0.274852 47.842 -0.196423 48.3518 0.940803C49.9204 4.54855 50.8616 8.27395 50.2341 12.2346C49.8028 14.9797 48.7048 17.4894 47.293 19.8815C46.9009 20.5089 46.8225 21.0579 46.9401 21.803C48.0773 28.7832 50.0773 35.4497 53.3321 41.7241C54.1948 43.4103 55.136 45.0181 56.1556 46.5867C56.4693 47.0573 56.6261 47.2141 56.9398 46.5867C60.4692 39.9986 61.9201 33.0576 60.979 25.6068C60.8613 24.5873 60.5084 23.7638 60.0378 22.901C56.7438 16.8228 58.7437 11.1366 62.626 7.09751C63.2142 6.47007 63.6456 6.50929 64.1161 7.25437C67.1357 11.8817 68.4297 16.7443 66.1161 22.0775C65.9592 22.4697 65.92 22.7442 66.2729 23.0971C66.7435 23.5677 66.9396 24.1951 67.0572 24.8618C67.6062 28.195 67.6062 31.5283 67.1357 34.8223C66.9788 35.8811 67.1357 36.8222 67.4494 37.8026C70.3121 46.3122 74.3904 54.1159 80.3118 60.9393C81.449 62.2334 81.4098 62.2334 83.1745 62.351C83.3705 62.1157 83.1745 61.9589 83.0568 61.802C78.6256 53.5277 77.1354 44.626 77.7236 35.3321C77.8413 33.8027 77.5668 32.5871 76.704 31.2145C72.9002 25.2147 75.2531 19.7639 79.6844 16.1169C80.2726 15.6463 80.7039 15.8816 81.0961 16.4306C84.6254 22.1167 84.7431 26.6264 81.0961 31.7243C80.4294 32.6263 80.2726 33.4498 80.4687 34.5086C81.6451 40.9006 83.3313 47.1357 86.4685 52.9003C88.3116 56.3119 90.5468 59.4099 93.2526 62.1549C93.6056 62.5079 93.9193 62.6647 94.4291 62.5863C95.88 62.351 97.331 62.1549 98.7819 61.9981C99.4486 61.9196 99.4878 61.7236 99.0956 61.2138C96.3506 57.606 94.233 53.6453 92.8605 49.3317C91.5272 45.1358 90.8998 40.8614 91.135 36.4693C91.135 35.8811 90.9782 35.4889 90.586 35.0576C88.6645 33.1361 87.4489 30.9008 87.841 28.0774C88.2332 25.0578 90.1155 23.0579 92.586 21.4893C92.9781 21.2148 93.3703 21.2932 93.684 21.6854C95.1742 23.6069 96.3898 25.6068 96.6643 28.0774C96.8996 30.1557 96.0369 31.9204 94.9389 33.6066C94.8604 33.7635 94.7428 33.9204 94.6252 34.038C93.4487 35.0184 93.6448 36.1556 94.0369 37.4497C96.5467 45.8024 101.096 52.8218 107.841 58.4295C108.35 58.8609 108.742 58.9785 109.409 58.6648C117.213 54.9786 123.487 49.4494 128.781 42.7437C132.114 38.5085 134.977 33.9988 137.526 29.2538C137.761 28.7832 137.761 28.5087 137.408 28.0774C132.624 22.4304 132.467 16.7835 135.605 10.3523C136.154 9.25432 136.585 9.2151 137.487 10.0778C140.467 12.9013 142.075 16.1561 142.702 20.6658C142.898 20.6658 143.016 20.5089 143.134 20.3913C145.996 17.3325 149.643 15.96 153.682 15.5287C154.624 15.411 154.898 15.764 154.741 16.7835C153.447 23.6461 149.8 28.1558 142.82 29.842C142.232 29.9989 141.957 30.2342 141.761 30.8224C138.859 40.2339 134.742 49.0572 128.585 56.8217C125.526 60.7432 121.997 64.1941 117.997 67.1744C117.605 67.4489 117.291 67.645 117.683 68.2332C121.37 74.037 125.722 79.2525 131.448 83.2132C134.507 85.3308 137.84 86.8994 141.369 88.1151C141.84 88.2719 142.193 88.2327 142.585 87.9582C143.447 87.2915 144.349 86.7425 145.33 86.272C147.33 85.2524 149.369 85.0563 151.486 85.723C153.133 86.272 154.663 87.0955 156.114 88.0366C156.624 88.3896 156.702 88.8209 156.388 89.3307C153.212 94.507 147.33 96.1933 142.428 91.3307C141.957 90.8601 141.487 90.6248 140.82 90.6248C132.193 90.3503 124.781 86.9386 118.193 81.527C115.213 79.0565 112.546 76.233 110.35 73.0174C109.958 72.4292 109.644 72.39 109.056 72.7037C108.076 73.2135 107.056 73.684 106.037 74.037C105.331 74.2723 105.292 74.5468 105.644 75.1742C107.88 78.978 110.625 82.3505 113.88 85.37C119.448 90.5464 125.918 94.1933 132.859 97.0952C133.252 97.2521 133.605 97.2129 133.957 97.056C135.252 96.4678 136.624 95.9972 138.036 95.7227C141.8 95.0168 144.938 96.3501 147.761 98.703C148.349 99.1736 148.859 99.7226 149.369 100.232C149.918 100.781 149.839 101.252 149.251 101.723C143.996 105.722 137.957 105.762 133.33 100.232C132.938 99.7618 132.546 99.5265 131.958 99.4089C122.389 97.9972 113.683 94.5463 106.154 88.3503C102.468 85.3308 99.3701 81.8407 97.0173 77.6839C96.7428 77.1741 96.4682 77.0173 95.9192 77.1742C94.8604 77.4487 93.7624 77.6055 92.6252 77.8408C93.8801 80.1153 95.2526 82.1936 96.7428 84.1936C102.899 92.5071 110.586 99.0952 119.291 104.585C120.468 105.33 121.644 106.036 122.781 106.742C123.252 107.017 123.683 107.095 124.232 106.977C127.958 106.311 131.605 106.271 135.055 108.075C137.604 109.369 139.644 111.252 141.408 113.487C141.957 114.154 141.84 114.624 141.016 114.938C134.546 117.722 127.801 116.663 123.252 110.193C122.742 109.487 122.232 109.095 121.409 108.82C113.723 106.271 106.546 102.664 100.037 97.8011C99.8407 97.6442 99.6446 97.5266 99.4093 97.3697C99.2133 97.6834 99.3309 97.9971 99.3309 98.2717C99.4878 100.311 99.3309 102.311 98.8996 104.311C98.7427 104.977 98.8996 105.33 99.4093 105.762C103.684 109.369 108.311 112.428 113.056 115.408C115.291 116.82 117.448 117.252 120.075 117.055C127.095 116.467 132.82 119.408 137.644 124.31C138.389 125.095 138.271 125.565 137.252 125.957C129.526 128.938 121.33 126.702 116.193 120.193C115.801 119.722 115.409 119.369 114.782 119.173C108.625 117.134 102.743 114.467 97.2133 111.016C96.6251 110.663 96.5467 110.977 96.3114 111.369C91.7233 119.33 84.9391 124.232 75.8021 125.487C68.665 126.467 62.3123 124.585 57.332 119.095C55.8811 117.526 54.8223 115.683 54.038 113.722C53.8811 113.291 53.6458 113.095 53.1752 112.977C45.1754 111.056 37.6854 107.958 30.9797 103.173C20.5878 95.8011 14.4311 85.723 11.8822 73.3311C10.9018 68.5469 10.5097 63.7235 10.6665 58.8609C10.6665 58.3511 10.5881 58.0766 10.0783 57.8021C2.62751 53.9198 -1.37239 45.7632 0.431483 36.5477C2.90201 23.8422 15.4115 14.1562 28.2739 15.0973C35.0973 15.6071 40.4697 18.7051 44.1166 24.5873C44.1559 24.6265 44.2343 24.7441 44.2735 24.7441C44.3911 24.7049 44.3911 24.5873 44.3127 24.5088V24.4696ZM44.4696 39.6849C44.4696 39.6849 44.5088 39.5673 44.548 39.4496C46.2734 34.2341 44.9402 27.4891 41.1755 22.9402C38.1952 19.3717 33.764 16.9796 28.3916 16.5482C16.2742 15.5679 4.15688 24.8618 1.92164 36.8222C0.000121905 46.7436 5.09803 55.2531 14.5096 58.0374C16.6664 58.6648 18.8624 58.9001 21.1761 58.704C20.5094 58.1942 19.8035 58.2727 19.1761 58.1158C12.1567 56.7041 7.13719 50.7827 6.94112 43.6456C6.6274 31.8812 17.9604 21.3717 29.8033 22.5089C35.9992 23.0971 40.5481 26.1166 43.0578 31.9204C44.1166 34.3517 44.2735 36.9399 44.1166 39.5281C44.1166 39.5673 44.1166 39.9986 44.1166 40.0771C44.1166 40.0771 44.1166 40.5084 44.1166 40.5476C44.1951 40.3908 44.2735 40.2339 44.3519 40.0771C44.3911 39.9594 44.4696 39.8418 44.5088 39.7241L44.4696 39.6849ZM45.0578 43.2142C44.7441 43.4495 44.7049 43.724 44.5872 43.9985C41.9598 49.8415 37.7639 54.2336 32.0777 57.1747C25.8818 60.3903 19.4114 61.253 12.7057 59.0178C12.039 58.7825 12.039 59.0962 12.039 59.5668C11.9606 63.4098 12.2351 67.2528 12.9018 71.0567C14.588 80.8996 18.5095 89.6052 25.6073 96.7815C30.0778 101.291 35.3326 104.703 41.0971 107.369C44.9402 109.134 48.94 110.507 53.0576 111.448C53.2145 111.252 53.136 111.056 53.0968 110.899C52.0772 106.311 52.5478 101.84 54.3909 97.5658C57.881 89.3307 64.0377 84.0367 72.5473 81.4878C73.3708 81.2525 73.3316 81.0172 72.9787 80.3898C71.4101 77.4094 69.763 74.4683 67.9592 71.6449C67.567 71.0174 67.7239 70.8606 68.3513 70.6253C73.1355 68.8606 78.0373 68.0763 83.096 68.3901C87.5665 68.6646 91.8801 69.6842 95.9192 71.6449C96.978 72.1547 97.7623 71.9978 98.2721 71.2135C98.8603 70.3116 98.4682 69.3312 97.331 68.743C94.1546 67.096 90.7821 66.1548 87.3312 65.5666C80.2334 64.3902 73.3316 65.2137 66.6259 67.8411C66.0377 68.0763 65.7239 68.0763 65.3318 67.4881C62.7436 63.5667 59.9594 59.7628 56.9791 56.1159C56.6261 55.6845 56.6653 55.41 56.9791 54.9786C61.0574 50.0376 63.8808 44.4691 65.2141 38.234C66.1553 33.9204 66.3906 29.5675 65.7239 25.1755C65.5279 24.0383 64.7828 23.45 63.8024 23.6069C62.9005 23.7638 62.3515 24.548 62.5083 25.6068C63.3318 31.1361 62.626 36.5477 60.8221 41.8025C59.4888 45.6848 57.4496 49.2141 54.9007 52.4689C54.5085 52.9787 54.2732 52.9003 53.9203 52.4689C53.3321 51.763 52.7047 51.0572 52.0772 50.3905C49.842 47.92 47.5283 45.5279 45.097 43.2534L45.0578 43.2142ZM79.1354 36.6654C79.1354 38.4693 79.1354 40.1555 79.253 41.8025C79.5667 47.9592 80.9 53.8806 83.645 59.4491C84.1941 60.5863 85.096 61.6451 85.4097 62.8608C85.6842 63.9196 86.3116 63.8804 87.0567 64.0372C90.939 64.6647 94.7036 65.6842 98.1937 67.5273C99.8799 68.4293 100.507 70.2332 99.7231 71.7625C98.8996 73.3703 97.1349 73.8409 95.3702 73.0174C87.292 69.2528 79.0177 68.8606 70.5473 71.4488C69.9591 71.6057 69.8415 71.7625 70.1944 72.3508C71.5669 74.586 72.861 76.8604 74.0767 79.2133C74.9786 80.8996 74.9786 80.8996 76.8217 80.7035C77.2923 80.6643 77.7628 80.5858 78.2334 80.5858C78.9001 80.5858 79.253 80.4682 78.8609 79.7231C78.6648 79.331 78.5471 78.8996 78.3903 78.4682C78.1158 77.6839 78.3903 77.2918 79.1746 77.2918C80.5471 77.2918 81.9196 77.2918 83.2921 77.2918C83.7627 77.2918 84.0764 77.4487 84.2725 77.9192C84.6646 78.9388 85.3313 79.8408 85.8411 80.8211C86.194 81.4486 86.6646 81.8407 87.3312 82.1152C92.9781 84.3897 96.7427 88.468 98.5466 94.311C98.7427 94.8992 99.0172 95.3698 99.527 95.7227C103.723 98.9775 108.193 101.723 112.978 103.997C114.036 104.507 115.095 104.938 116.154 105.409C117.213 105.84 118.232 106.271 119.291 106.703C119.291 106.507 119.252 106.428 119.174 106.389C112.036 101.919 105.448 96.7031 99.8015 90.3895C96.429 86.5857 93.4095 82.5073 90.9782 78.0761C90.4292 77.0957 90.6253 76.7428 91.7233 76.5467C93.3703 76.233 95.0173 75.9193 96.6251 75.6056C97.1741 75.4879 97.6055 75.5271 97.88 76.1154C98.7427 77.9977 99.9584 79.6839 101.252 81.2917C106.468 87.8013 113.134 92.2326 120.86 95.1345C123.566 96.1541 126.35 96.9384 129.213 97.4874C129.173 96.9384 128.742 96.9384 128.428 96.7815C123.605 94.4678 119.056 91.7228 114.938 88.2719C110.429 84.4681 106.664 80.076 103.841 74.8605C103.331 73.8801 103.409 73.6056 104.468 73.1743C105.88 72.6253 107.292 72.037 108.625 71.3312C110.389 70.4292 110.35 70.4684 111.527 72.0762C116.899 79.527 123.762 84.9779 132.546 87.8013C134.663 88.468 136.859 88.8993 139.095 89.017C138.938 88.8601 138.781 88.7817 138.585 88.7033C132.389 86.2327 127.213 82.3897 122.781 77.4487C120.232 74.6252 118.076 71.5272 116.036 68.3116C115.566 67.5666 115.644 67.1744 116.311 66.7038C125.369 60.155 131.722 51.4493 136.271 41.3711C137.997 37.6065 139.487 33.7243 140.624 29.7244C140.82 29.0185 141.173 28.6264 141.957 28.5087C143.722 28.2342 145.369 27.6068 146.898 26.7049C150.585 24.5873 152.31 21.1756 153.29 17.0973C149.016 17.8423 145.408 19.4109 143.095 23.1363C142.82 23.5677 142.546 24.0383 141.918 23.803C141.291 23.5677 141.212 23.1363 141.251 22.5089C141.683 18.3129 139.957 14.9012 137.291 11.8817C136.977 11.5288 136.82 11.568 136.624 11.9993C135.526 14.6267 134.859 17.3325 135.291 20.1952C135.722 23.1363 137.252 25.5284 139.212 27.6852C139.604 28.1166 139.8 28.5087 139.487 29.0969C136.389 35.0184 132.781 40.6261 128.467 45.7632C123.291 51.8415 117.213 56.8217 109.919 60.1942C108.978 60.6256 108.311 60.5863 107.448 59.8805C100.703 54.312 95.9192 47.4102 93.2526 39.0575C93.1742 38.8222 93.1742 38.5085 92.7821 38.5085C92.7821 38.6653 92.8605 38.783 92.8605 38.9398C93.135 47.4886 96.1545 55.0179 101.566 61.6451C102.194 62.4294 102.037 62.9 101.017 63.1353C98.8603 63.6451 96.6251 63.9588 94.3899 64.1549C93.7624 64.1941 93.3311 64.0372 92.8605 63.6059C90.4684 61.2138 88.39 58.5864 86.6254 55.6845C83.2137 50.0768 81.1745 43.9593 79.8412 37.6065C79.7628 37.2928 79.8412 36.9399 79.3706 36.6262L79.1354 36.6654ZM77.9197 82.1152C78.3119 82.3505 78.6648 82.4289 79.0177 82.5074C88.0371 83.8407 93.684 91.7228 92.037 100.703C90.3508 109.997 82.1157 117.487 72.6649 118.31C61.8417 119.212 54.0772 111.252 55.1752 101.174C55.1752 101.056 55.1752 100.938 55.1752 100.821C55.1752 100.703 55.1752 100.585 55.0575 100.546C54.8615 100.468 54.783 100.664 54.783 100.781C54.6654 101.33 54.587 101.879 54.4693 102.428C52.3125 113.212 59.0967 122.742 69.9983 124.114C82.6255 125.722 95.684 115.761 97.527 103.095C99.4486 90.1934 89.5273 81.2133 77.9197 82.1152ZM66.5082 39.3712C66.1553 40.5476 65.9592 41.528 65.6063 42.4299C65.2926 43.2534 65.2926 43.9985 65.4886 44.8612C66.7827 50.116 68.7043 55.1355 71.3708 59.8805C71.5669 60.2334 71.8022 60.6256 71.4885 61.0177C71.1748 61.4491 70.7434 61.3314 70.3513 61.1746C69.018 60.7432 67.6847 60.2726 66.3514 59.8805C65.6063 59.6452 65.0181 59.253 64.4691 58.7432C63.0181 57.3315 61.5672 55.9198 60.2339 54.3904C60.077 54.2336 59.8809 53.8414 59.7241 53.9983C59.2927 54.3904 58.9398 54.861 58.6261 55.3708C58.3908 55.7237 58.8222 55.959 59.0182 56.1943C61.4103 59.253 63.7632 62.3902 65.92 65.645C66.2729 66.1548 66.5082 66.2725 67.1357 66.0372C71.2532 64.5078 75.4884 63.6843 79.8804 63.5667C80.1157 63.5667 80.4294 63.6843 80.6255 63.3706C74.1943 56.4688 69.763 48.4298 66.5474 39.332L66.5082 39.3712ZM117.056 118.899C121.174 124.82 128.742 127.369 135.761 124.781C132.036 120.114 122.468 117.095 117.056 118.899ZM78.155 95.9972C79.4491 92.7816 77.3315 89.7621 73.959 89.9974C71.4885 90.1542 69.2925 91.9973 68.7043 94.3894C68.0376 97.1344 69.8023 99.5265 72.6257 99.6442C74.9394 99.7618 77.2531 98.2324 78.155 95.9972ZM26.3132 40.5868C25.0191 43.8417 27.1367 46.822 30.6268 46.5867C33.215 46.3906 35.5678 44.1946 35.8816 41.6456C36.1953 39.2143 34.5483 37.1752 32.1169 36.9399C29.6856 36.7046 27.2543 38.234 26.3132 40.5476V40.5868ZM47.4499 16.5482C49.4106 12.3915 49.3714 8.11709 47.8813 3.84269C47.6852 3.25447 47.6852 2.35253 47.1362 2.23489C46.7048 2.15646 46.3127 2.97997 45.9597 3.45054C42.1951 8.11709 41.9598 14.1562 45.2147 19.1756C45.6068 19.7639 45.8029 19.7246 46.0774 19.1364C46.5087 18.2737 46.9793 17.411 47.4499 16.509V16.5482ZM139.565 113.918C136.154 109.213 129.605 106.938 124.271 108.507C123.801 108.664 123.879 108.781 124.075 109.095C127.605 114.389 133.291 116.389 139.565 113.918ZM60.7437 12.7444C59.3319 15.9208 59.7633 19.1364 61.3711 22.2736C61.6456 22.8226 61.8809 23.0187 62.4299 22.5481C62.8613 22.1952 63.4103 22.0775 63.9593 22.1167C64.5083 22.1559 64.6651 21.8814 64.8612 21.4501C66.7435 17.0973 65.8416 13.0581 63.5671 9.17589C63.3318 8.78374 63.1358 8.74452 62.8613 9.13667C62.0378 10.2347 61.2535 11.3719 60.7437 12.7836V12.7444ZM77.1354 21.8422C75.3708 25.6461 77.0178 29.4107 78.7824 31.6459C79.0569 31.9988 79.2138 31.8812 79.4491 31.6067C82.8215 27.1362 83.3705 23.5677 80.4687 18.2737C80.2334 17.8031 80.0373 17.8423 79.6844 18.1953C78.5863 19.2933 77.6452 20.5089 77.0962 21.8814L77.1354 21.8422ZM45.8813 25.8029C45.8029 27.9989 46.3127 30.0773 46.4695 32.2341C46.7048 35.136 47.3715 37.9202 48.0773 40.7045C48.9008 43.8025 49.9988 46.7043 52.587 48.8219C52.8223 49.018 53.0184 49.2925 53.2537 49.5278C54.3125 50.7435 54.3125 50.7435 55.2536 49.3709C55.5281 48.9788 55.7242 48.6651 55.3713 48.1161C50.94 41.528 48.0381 34.2341 46.3519 26.5088C46.3127 26.2343 46.3519 25.8813 45.9205 25.8029H45.8813ZM138.82 102.624C141.722 103.722 144.624 102.899 147.408 101.134C147.722 100.938 147.722 100.781 147.487 100.546C145.996 99.2128 144.428 97.9972 142.467 97.4089C139.604 96.507 136.938 97.3305 134.35 98.4677C133.801 98.703 134.075 98.9383 134.31 99.2128C135.448 100.664 136.859 101.801 138.899 102.664L138.82 102.624ZM146.153 92.2718C149.604 93.7228 152.702 91.8012 154.467 89.3307C154.702 88.9778 154.506 88.8993 154.271 88.7425C153.369 88.1935 152.467 87.6837 151.486 87.3308C149.957 86.7818 148.428 86.5465 146.859 87.1739C145.526 87.6837 144.31 88.468 143.134 89.2915C142.781 89.566 142.742 89.7228 143.055 90.0366C143.918 91.0169 144.977 91.7228 146.153 92.2718ZM94.7428 30.9008C94.8212 30.7047 94.8997 30.4302 94.9781 30.195C95.684 27.5676 94.3899 25.45 93.0566 23.4108C92.8213 23.0579 92.6252 23.254 92.3899 23.4108C88.4685 26.1166 88.1939 31.0969 91.7625 34.2341C92.0762 34.5086 92.2723 34.587 92.5468 34.2341C93.3703 33.2145 94.1154 32.1557 94.7036 30.9008H94.7428ZM69.2533 59.2923C67.018 55.0179 65.4494 50.7435 64.1553 46.0769C63.1358 48.3514 62.077 50.2729 60.8613 52.116C60.5868 52.5473 60.7045 52.7826 60.979 53.1355C62.1554 54.4296 63.4103 55.6845 64.5867 56.9786C65.8024 58.3119 67.3709 58.8217 69.214 59.3315L69.2533 59.2923ZM111.487 116.35C111.487 116.35 111.291 116.193 111.213 116.154C107.056 113.683 103.096 110.938 99.3701 107.84C98.5858 107.186 97.9976 107.356 97.6055 108.35C97.6055 108.35 97.4878 108.703 97.4094 108.86C97.1741 109.252 97.331 109.487 97.7231 109.722C98.9388 110.428 100.115 111.173 101.331 111.84C104.586 113.683 107.958 115.173 111.487 116.389V116.35ZM84.0764 80.978C83.8019 80.4682 83.5666 80.076 83.3705 79.6447C83.096 79.1349 82.9 78.5467 82.1157 78.7035C81.5275 78.8212 80.8608 78.7427 80.2334 78.782C80.1942 78.782 80.1157 78.8212 80.1157 78.8604C79.9981 79.1349 80.7039 80.5074 81.0177 80.5466C81.998 80.6643 83.0176 80.7819 84.1156 80.9388L84.0764 80.978ZM46.195 39.2928C45.3715 41.6064 45.6068 42.2731 47.3322 43.0966C46.9793 41.8809 46.6264 40.6653 46.195 39.2928Z" fill="#104573"></path><path d="M78.1158 95.9979C77.2138 98.2331 74.9002 99.7625 72.5865 99.6448C69.7631 99.5272 67.9592 97.1351 68.665 94.3901C69.2533 91.998 71.4493 90.1549 73.9198 89.998C77.3315 89.7627 79.4491 92.7822 78.1158 95.9979Z" fill="#F9FAFB"></path><path d="M26.3131 40.5869C27.2542 38.2732 29.6855 36.7439 32.1169 36.9791C34.5874 37.2144 36.1952 39.2536 35.8815 41.6849C35.5285 44.2339 33.1757 46.4299 30.6267 46.626C27.1366 46.8613 25.019 43.8809 26.3131 40.6261V40.5869Z" fill="#F9FAFB"></path><path d="M45.058 43.2148C47.4893 45.4892 49.803 47.8813 52.0382 50.3518C52.6656 51.0185 53.2931 51.7244 53.8813 52.4302C54.2342 52.8616 54.4303 52.94 54.8617 52.4302C57.4106 49.2146 59.4498 45.6853 60.7831 41.7638C62.5869 36.5091 63.2928 31.0974 62.4693 25.5682C62.3124 24.5094 62.8222 23.7251 63.7634 23.5682C64.7045 23.4114 65.4888 23.9996 65.6849 25.1368C66.3908 29.5288 66.1163 33.8817 65.1751 38.1953C63.8026 44.4696 61.0184 50.0381 56.94 54.94C56.5871 55.3713 56.5479 55.6066 56.94 56.0772C59.9204 59.7242 62.7046 63.528 65.2928 67.4494C65.6849 68.0377 65.9986 68.0377 66.5868 67.8024C73.2926 65.175 80.1943 64.3907 87.2922 65.5279C90.7823 66.1161 94.1548 67.0573 97.2919 68.7043C98.4292 69.2925 98.8213 70.2729 98.2331 71.1748C97.7233 71.9591 96.939 72.116 95.8802 71.6062C91.8411 69.6063 87.5275 68.6259 83.057 68.3514C77.9983 68.0377 73.0965 68.822 68.3123 70.5866C67.6849 70.8219 67.528 70.9788 67.9201 71.6062C69.724 74.4689 71.371 77.3708 72.9396 80.3511C73.2926 80.9785 73.3318 81.2138 72.5083 81.4491C63.9987 83.998 57.842 89.3312 54.3519 97.5271C52.548 101.802 52.0774 106.272 53.0578 110.86C53.0578 111.017 53.1754 111.213 53.0186 111.409C48.901 110.468 44.9011 109.095 41.0581 107.331C35.2935 104.703 30.0388 101.292 25.5683 96.7428C18.4704 89.6057 14.549 80.8609 12.8627 71.018C12.2353 67.2142 11.9608 63.3711 12 59.5281C12 59.0575 12 58.7438 12.6667 58.9791C19.3724 61.2143 25.8428 60.3908 32.0387 57.136C37.6856 54.1949 41.8816 49.8028 44.5482 43.9598C44.6658 43.6853 44.7443 43.3716 45.0188 43.1756L45.058 43.2148Z" fill="#1DC4E9"></path><path d="M79.0964 36.6658C79.6062 36.9795 79.5278 37.3325 79.567 37.6462C80.9003 43.9989 82.9395 50.1164 86.3512 55.7241C88.1158 58.626 90.1942 61.2534 92.5863 63.6455C93.0177 64.0769 93.4882 64.2729 94.1157 64.1945C96.3509 63.9984 98.5469 63.6847 100.743 63.1749C101.763 62.9396 101.919 62.4691 101.292 61.6848C95.8803 55.0575 92.8608 47.5675 92.5863 38.9795C92.5863 38.8618 92.5471 38.705 92.5079 38.5481C92.9 38.5481 92.9 38.8618 92.9784 39.0971C95.645 47.4498 100.429 54.3516 107.174 59.9201C108.037 60.626 108.664 60.6652 109.645 60.2338C116.939 56.8614 123.017 51.8811 128.193 45.8028C132.546 40.7049 136.115 35.0972 139.213 29.1366C139.526 28.5484 139.369 28.1562 138.938 27.7249C136.977 25.568 135.448 23.1759 135.017 20.2348C134.585 17.3722 135.252 14.6664 136.35 12.039C136.546 11.6076 136.703 11.5684 137.017 11.9213C139.683 14.9801 141.409 18.3525 140.977 22.5485C140.899 23.1367 140.977 23.6073 141.644 23.8426C142.311 24.0779 142.546 23.6073 142.82 23.1759C145.134 19.4506 148.742 17.8428 153.016 17.1369C152.036 21.2152 150.31 24.6269 146.624 26.7445C145.095 27.6464 143.448 28.2346 141.683 28.5484C140.899 28.666 140.546 29.0582 140.35 29.764C139.213 33.7639 137.722 37.6462 135.997 41.4108C131.409 51.489 125.056 60.1946 116.037 66.7435C115.37 67.214 115.292 67.6062 115.762 68.3513C117.801 71.5277 119.958 74.6256 122.507 77.4883C126.938 82.4293 132.115 86.2724 138.311 88.7429C138.507 88.8213 138.664 88.8998 138.82 89.0566C136.585 88.9782 134.389 88.5468 132.272 87.841C123.448 85.0175 116.625 79.5275 111.252 72.1159C110.076 70.5081 110.115 70.4689 108.351 71.3708C106.978 72.0767 105.606 72.6649 104.194 73.2139C103.174 73.606 103.057 73.9198 103.566 74.9001C106.39 80.1157 110.154 84.5077 114.664 88.3115C118.782 91.7624 123.331 94.5075 128.154 96.8211C128.468 96.978 128.86 96.978 128.938 97.527C126.076 96.978 123.291 96.1937 120.586 95.1741C112.86 92.2722 106.155 87.841 100.978 81.3313C99.6841 79.7235 98.5077 78.0373 97.6058 76.155C97.3313 75.5668 96.9391 75.5276 96.3509 75.6452C94.7039 75.9981 93.0961 76.3119 91.4491 76.5863C90.3903 76.7824 90.1942 77.1354 90.704 78.1157C93.1745 82.5862 96.1548 86.6645 99.5273 90.4291C105.174 96.7427 111.723 101.919 118.899 106.429C118.978 106.468 119.017 106.546 119.017 106.742C117.958 106.311 116.899 105.919 115.88 105.448C114.821 104.978 113.723 104.546 112.703 104.037C107.958 101.723 103.449 99.0172 99.2528 95.7623C98.743 95.3702 98.4685 94.9388 98.2724 94.3506C96.4685 88.5076 92.7432 84.4293 87.057 82.1548C86.3904 81.8803 85.8806 81.4882 85.5669 80.8608C85.0571 79.8804 84.3904 79.0177 83.9983 77.9589C83.8414 77.4883 83.4885 77.3314 83.0179 77.3314C81.6454 77.3314 80.2729 77.3314 78.9004 77.3314C78.1161 77.3314 77.8808 77.7236 78.1161 78.5079C78.2729 78.9392 78.3514 79.3706 78.5867 79.7627C78.9788 80.5078 78.6259 80.6647 77.9592 80.6255C77.4886 80.6255 77.0181 80.6647 76.5475 80.7431C74.7044 80.9392 74.7044 80.9392 73.8025 79.2529C72.5868 76.9393 71.2927 74.6256 69.9202 72.3904C69.5673 71.8414 69.6849 71.6845 70.2731 71.4884C78.7435 68.9003 87.0178 69.2924 95.096 73.057C96.8607 73.8805 98.6254 73.41 99.4489 71.8022C100.233 70.2728 99.6057 68.4689 97.9195 67.567C94.4294 65.7239 90.6648 64.7043 86.7825 64.0769C86.0374 63.9592 85.41 63.9592 85.1355 62.9004C84.8218 61.6848 83.9198 60.6652 83.3708 59.4887C80.6258 53.9203 79.2925 47.9988 78.9788 41.8421C78.9004 40.1559 78.9004 38.4697 78.8612 36.705L79.0964 36.6658Z" fill="#1DC4E9"></path><path d="M77.8808 82.1153C89.5275 81.2134 99.4096 90.1935 97.4881 103.095C95.6058 115.761 82.5865 125.722 69.9594 124.114C59.0577 122.742 52.2736 113.213 54.4304 102.429C54.548 101.879 54.6264 101.33 54.7441 100.781C54.7441 100.664 54.8225 100.468 55.0186 100.546C55.1754 100.585 55.1362 100.703 55.1362 100.821C55.1362 100.938 55.1362 101.056 55.1362 101.174C54.0774 111.213 61.8027 119.212 72.626 118.31C82.0767 117.526 90.3118 109.997 91.998 100.703C93.6451 91.7229 87.9981 83.8407 78.9788 82.5074C78.5866 82.4682 78.2729 82.3506 77.8808 82.1153Z" fill="#1DC4E9"></path><path d="M44.1559 39.5282C44.3128 36.9008 44.1559 34.3519 43.0971 31.9206C40.5874 26.1168 36.0385 23.0973 29.8426 22.5091C17.9997 21.3718 6.6667 31.8814 6.98042 43.6458C7.17649 50.7828 12.196 56.7435 19.2154 58.116C19.8428 58.2336 20.5487 58.1944 21.2153 58.7042C18.8625 58.9003 16.6664 58.7042 14.5488 58.0376C5.09811 55.2533 0.000201821 46.7437 1.88251 36.8616C4.15696 24.9012 16.2351 15.6465 28.3524 16.5876C29.6465 16.7053 36.5091 17.3719 41.1364 22.9796C44.8226 27.4109 46.6657 34.3519 44.4697 39.7243C44.3128 40.0772 44.1951 40.3517 44.0775 40.5478C44.0775 40.2341 44.1167 39.8812 44.1559 39.5674V39.5282Z" fill="#1DC4E9"></path><path d="M66.469 39.3325C69.6846 48.4303 74.1159 56.4693 80.5471 63.3711C80.351 63.6848 80.0373 63.5672 79.802 63.5672C75.41 63.6848 71.1748 64.5083 67.0573 66.0377C66.469 66.273 66.1945 66.1554 65.8416 65.6456C63.6848 62.3908 61.3319 59.2536 58.9398 56.1948C58.7437 55.9595 58.3124 55.7635 58.5477 55.3713C58.8614 54.8615 59.2143 54.391 59.6457 53.9988C59.8025 53.842 60.0378 54.2341 60.1555 54.391C61.4888 55.9203 62.9397 57.3321 64.3907 58.7438C64.9397 59.2928 65.5279 59.6457 66.273 59.881C67.6063 60.3124 68.9396 60.7437 70.2729 61.1751C70.665 61.2927 71.0964 61.4496 71.4101 61.0182C71.7238 60.5869 71.4885 60.2339 71.2924 59.881C68.6258 55.136 66.7435 50.1166 65.4102 44.8618C65.2142 43.9991 65.2142 43.254 65.5279 42.4305C65.8808 41.5285 66.0769 40.5482 66.4298 39.3717L66.469 39.3325Z" fill="#1DC4E9"></path><path d="M116.978 118.899C122.389 117.095 131.918 120.114 135.683 124.781C128.703 127.369 121.095 124.781 116.978 118.899Z" fill="#1DC4E9"></path><path d="M47.45 16.5484C46.9794 17.4111 46.5089 18.2739 46.0775 19.1758C45.803 19.764 45.6069 19.8032 45.2148 19.215C41.9207 14.1955 42.1952 8.15647 45.9598 3.48992C46.3128 3.01935 46.7049 2.19584 47.1363 2.27427C47.6853 2.39191 47.6853 3.29385 47.8814 3.88207C49.3715 8.15647 49.4107 12.3917 47.45 16.5876V16.5484Z" fill="#1DC4E9"></path><path d="M139.526 113.879C133.252 116.349 127.566 114.389 124.036 109.055C123.84 108.742 123.762 108.585 124.232 108.467C129.566 106.899 136.114 109.173 139.526 113.879Z" fill="#1DC4E9"></path><path d="M60.7438 12.7445C61.2929 11.3327 62.0379 10.1955 62.8614 9.0975C63.1359 8.70536 63.332 8.74457 63.5673 9.13672C65.8025 13.0582 66.7045 17.0973 64.8614 21.4109C64.6653 21.8423 64.5085 22.1168 63.9594 22.0776C63.4104 22.0383 62.8614 22.156 62.4301 22.5089C61.8811 22.9795 61.6458 22.7834 61.3713 22.2344C59.7635 19.0972 59.3321 15.9209 60.7438 12.7053V12.7445Z" fill="#1DC4E9"></path><path d="M77.1355 21.8419C77.6845 20.4694 78.6257 19.293 79.7237 18.1558C80.0766 17.8028 80.2335 17.7636 80.508 18.2342C83.3707 23.5282 82.8609 27.0967 79.4884 31.5672C79.2531 31.8809 79.0963 31.9593 78.8218 31.6064C77.0571 29.3319 75.4101 25.6066 77.1747 21.8027L77.1355 21.8419Z" fill="#1DC4E9"></path><path d="M45.9207 25.7634C46.352 25.8419 46.3128 26.1948 46.352 26.4693C48.0382 34.2338 50.9401 41.4885 55.3714 48.0766C55.7243 48.6256 55.5283 48.9001 55.2537 49.3315C54.3126 50.704 54.3518 50.704 53.2538 49.4883C53.0185 49.253 52.8224 48.9785 52.5871 48.7824C49.999 46.6649 48.901 43.763 48.0775 40.665C47.3324 37.8808 46.6657 35.0965 46.4697 32.1946C46.3128 30.077 45.803 27.9987 45.8814 25.7634H45.9207Z" fill="#1DC4E9"></path><path d="M138.859 102.585C136.82 101.722 135.448 100.585 134.271 99.1342C134.075 98.8989 133.801 98.6244 134.311 98.3891C136.938 97.2519 139.565 96.4284 142.428 97.3303C144.389 97.9185 145.957 99.1342 147.447 100.467C147.722 100.703 147.683 100.86 147.369 101.056C144.585 102.82 141.683 103.644 138.781 102.546L138.859 102.585Z" fill="#1DC4E9"></path><path d="M146.193 92.2329C145.016 91.7231 143.958 90.978 143.095 89.9976C142.781 89.6839 142.82 89.4878 143.173 89.2526C144.35 88.429 145.526 87.6448 146.899 87.135C148.467 86.5467 149.997 86.7428 151.526 87.2918C152.506 87.6448 153.408 88.1545 154.31 88.7036C154.585 88.8604 154.781 88.9781 154.506 89.2918C152.702 91.7231 149.604 93.6838 146.193 92.2329Z" fill="#1DC4E9"></path><path d="M94.7429 30.9007C94.1547 32.1163 93.4096 33.2144 92.5861 34.2339C92.3116 34.5869 92.0763 34.5084 91.8018 34.2339C88.2333 31.0968 88.5078 26.1165 92.4293 23.4107C92.6646 23.2538 92.8606 23.0577 93.0959 23.4107C94.4292 25.4891 95.7233 27.5674 95.0174 30.1948C94.939 30.4693 94.8606 30.7046 94.7822 30.9007H94.7429Z" fill="#1DC4E9"></path><path d="M111.488 116.35C107.958 115.134 104.547 113.644 101.331 111.801C100.115 111.134 98.9389 110.35 97.7233 109.683C97.3311 109.448 97.2135 109.252 97.4095 108.821C97.488 108.664 97.5664 108.507 97.6056 108.311C97.9978 107.343 98.586 107.174 99.3703 107.801C103.096 110.86 107.056 113.605 111.213 116.114C111.331 116.193 111.409 116.271 111.488 116.311V116.35Z" fill="#1DC4E9"></path><path d="M29.0975 66.3118C28.1564 66.3118 27.2937 66.3902 26.3133 66.3902C30.3524 63.5668 34.2347 63.7236 35.9601 66.4687C34.47 66.4294 32.9014 66.3902 31.3328 66.351C31.0975 66.7432 30.9799 66.9392 30.8622 67.1745C28.1172 72.9391 27.725 78.2331 29.6073 83.0173C31.4896 87.723 35.0582 90.9778 40.5875 92.468C43.0972 93.1346 45.803 93.2915 48.7441 92.8994C49.2539 91.5268 49.7245 90.1935 50.2735 88.821C52.8224 90.3112 50.9793 95.2522 47.0187 97.762C47.45 96.7816 47.8814 95.8797 48.3127 94.9385C48.1951 94.9385 48.1167 94.8601 47.999 94.8601C47.7245 94.8993 47.45 94.9385 47.1363 94.9777C40.7051 95.9973 34.9798 95.5267 30.5485 92.6249C24.9016 88.9387 23.4114 83.1741 24.98 75.9978C25.6074 73.0567 26.9015 70.1548 28.5485 67.253C28.7054 67.0177 28.823 66.7432 29.0975 66.2726V66.3118Z" fill="#104573"></path><path d="M591.083 92.1938H563.476V306.188H591.083V92.1938Z" fill="#1DC4E9"></path><path d="M587.436 92.1152H559.829V306.11H587.436V92.1152Z" fill="#104573"></path><path d="M767 306.07C767.431 305.521 743.393 279.247 716.217 253.875C712.296 250.189 699.237 238.111 680.375 222.504C662.532 207.759 619.71 173.642 557.045 137.212C541.476 128.153 528.104 120.31 508.811 110.977C476.694 95.3697 452.342 87.1738 416.852 75.2133C410.578 73.0957 401.362 70.0762 389.088 67.3312C376.971 64.6253 367.795 63.4881 364.618 63.096C319.953 57.4883 307.09 50.5473 271.052 48.5473C236.386 46.6258 205.877 50.7041 173.29 55.057C162.584 56.4687 153.761 57.9196 147.604 58.9392H147.369C147.369 58.9392 147.369 58.9392 147.408 58.9392C147.487 58.9392 147.565 58.9392 147.565 58.9392C225.837 57.0961 286.816 64.3116 286.816 64.3116C318.541 68.0762 359.638 74.8996 407.362 87.9581C487.125 110.585 545.751 141.486 584.966 166.113C658.846 212.465 748.883 289.796 762.451 302.227C763.628 303.325 766.843 306.266 766.961 306.07H767Z" fill="#104573"></path><path d="M767 306.07C767.275 305.796 758.647 295.208 756.255 292.267C715.041 241.523 650.297 191.72 650.297 191.72C636.219 179.603 617.357 164.427 594.22 148.506C556.417 122.545 525.948 107.605 518.458 103.958C512.34 101.017 486.145 88.4679 446.852 75.6447C416.303 65.645 361.285 48.0768 288.424 44.2729C263.876 42.9789 231.249 41.4887 190.113 49.0964C172.192 52.3904 147.33 58.4294 147.369 58.9C147.408 59.1745 156.78 57.4491 159.486 56.9393C205.132 48.7042 267.836 52.8217 283.052 53.959C323.482 56.9393 353.207 62.7038 359.481 63.9195C369.991 65.9979 397.833 71.7624 433.244 83.2916C441.283 85.9189 466.027 94.154 497.556 108.075C514.732 115.644 542.653 128.075 576.887 149.055C593.358 159.133 605.357 167.603 617.239 175.956C647.356 197.132 669.238 215.014 675.277 219.994C718.217 255.405 752.53 290.463 761.667 300.502C762.53 301.443 766.804 306.227 767 306.031V306.07Z" fill="#1DC4E9"></path><path d="M722.256 92.1545H694.649V306.149H722.256V92.1545Z" fill="#1DC4E9"></path><path d="M718.884 92.1152H691.277V306.11H718.884V92.1152Z" fill="#104573"></path><path fill-rule="evenodd" clip-rule="evenodd" d="M227.445 34.5482C227.445 34.5482 218.387 27.019 209.407 27.8425C200.426 28.6268 196.662 32.0777 198.113 34.5482C199.564 37.0187 203.799 35.2541 210.387 32.9404C216.936 30.6267 227.485 34.5874 227.485 34.5874L227.445 34.5482Z" fill="#1DC4E9"></path><path fill-rule="evenodd" clip-rule="evenodd" d="M180.231 76.3507C180.231 76.3507 175.839 71.5273 171.643 71.2528C167.447 70.9783 168.074 74.0762 171.447 74.7821C174.819 75.4879 176.27 75.2919 177.956 75.8017C179.682 76.2722 180.192 76.3899 180.192 76.3899L180.231 76.3507Z" fill="#1DC4E9"></path><path fill-rule="evenodd" clip-rule="evenodd" d="M156.349 73.802C156.349 73.802 153.957 71.1354 151.643 70.9786C149.33 70.8217 149.683 72.5471 151.526 72.9001C153.369 73.2922 154.153 73.1746 155.094 73.4491C156.035 73.7236 156.31 73.7628 156.31 73.7628L156.349 73.802Z" fill="#1DC4E9"></path><path fill-rule="evenodd" clip-rule="evenodd" d="M183.839 36.5475C183.839 36.5475 177.839 33.9986 173.917 35.4887C169.996 37.0181 171.878 39.5278 175.211 38.7827C178.584 37.9985 179.8 37.2534 181.564 36.9789C183.329 36.7044 183.839 36.5475 183.839 36.5475Z" fill="#1DC4E9"></path><path fill-rule="evenodd" clip-rule="evenodd" d="M157.486 43.1363C157.486 43.1363 153.683 42.5088 151.683 43.9206C149.643 45.3323 151.055 46.5087 152.898 45.6068C154.702 44.7049 155.29 44.0774 156.271 43.6853C157.251 43.2931 157.526 43.1363 157.526 43.1363H157.486Z" fill="#1DC4E9"></path><path fill-rule="evenodd" clip-rule="evenodd" d="M211.72 83.2527C211.72 83.2527 204.466 75.2137 197.525 74.7039C190.544 74.2334 191.603 79.3705 197.211 80.5861C202.819 81.8018 205.211 81.4489 208.034 82.2724C210.897 83.0959 211.759 83.2527 211.759 83.2527H211.72Z" fill="#1DC4E9"></path><path fill-rule="evenodd" clip-rule="evenodd" d="M431.911 167.643C432.812 168.858 433.95 170.388 435.126 172.27C436.852 175.015 438.146 177.486 439.204 179.721C443.047 187.838 444.969 191.917 444.695 195.799C444.616 196.818 444.028 204.112 438.616 206.818C437.283 207.485 435.754 207.877 434.067 207.916C427.597 207.995 422.225 201.681 422.852 195.446C423.323 190.544 426.577 189.132 429.558 181.878C431.871 176.231 432.067 171.015 431.95 167.604L431.911 167.643Z" fill="#104573"></path><path fill-rule="evenodd" clip-rule="evenodd" d="M430.46 189.877C430.224 189.877 429.95 189.877 429.715 189.877C429.283 189.955 428.734 190.779 428.381 191.799C427.989 192.818 427.832 194.269 427.911 194.544C427.95 194.74 428.499 194.7 429.048 194.74C429.401 194.74 429.832 194.818 430.068 194.661C430.224 194.583 430.028 193.642 430.068 192.779C430.146 191.955 430.342 190.818 430.617 189.916C430.617 189.838 430.617 189.799 430.499 189.799L430.46 189.877Z" fill="#104573"></path><path fill-rule="evenodd" clip-rule="evenodd" d="M429.754 188.818C429.518 188.818 430.656 187.485 430.969 187.211C431.126 187.093 431.518 187.054 431.793 187.132C431.793 187.132 431.832 187.132 431.793 187.171C431.44 187.72 431.205 188.309 430.93 188.897C430.93 188.975 430.656 188.897 430.42 188.897C430.107 188.858 429.714 188.818 429.714 188.818H429.754Z" fill="#104573"></path><path fill-rule="evenodd" clip-rule="evenodd" d="M425.283 192.544C425.283 192.544 425.44 192.584 425.44 192.701C425.44 192.78 425.401 192.858 425.283 192.858C425.205 192.858 425.126 192.819 425.126 192.701C425.126 192.623 425.166 192.544 425.283 192.544Z" fill="#104573"></path><path fill-rule="evenodd" clip-rule="evenodd" d="M427.911 188.584C427.597 188.545 428.42 187.721 429.205 187.329C429.989 186.937 430.656 187.015 430.342 187.329C430.028 187.682 429.205 188.584 429.048 188.662C428.852 188.702 427.95 188.584 427.95 188.584H427.911Z" fill="#104573"></path><path fill-rule="evenodd" clip-rule="evenodd" d="M439.126 192.191C440.812 192.112 441.988 193.799 441.675 195.877C441.4 197.995 439.753 199.759 438.067 199.838C436.381 199.916 435.204 198.23 435.518 196.152C435.793 194.034 437.44 192.269 439.126 192.191Z" fill="#1DC4E9"></path><path d="M174.858 333.56H731.707" stroke="#808080" stroke-width="1.96073" stroke-miterlimit="10"></path><path d="M174.858 339.443H731.707" stroke="#808080" stroke-width="1.96073" stroke-miterlimit="10"></path><path d="M170.937 400.225H731.707" stroke="#808080" stroke-width="1.96073" stroke-miterlimit="10"></path><path d="M170.937 406.107H731.707" stroke="#808080" stroke-width="1.96073" stroke-miterlimit="10"></path></g><defs><clipPath id="clip0_366_1396"><rect width="767" height="407.088" fill="white"></rect></clipPath></defs></svg>