<svg xmlns="http://www.w3.org/2000/svg" xmlns:xlink="http://www.w3.org/1999/xlink" version="1.1" x="0px" y="0px" viewBox="0 0 100 125" enable-background="new 0 0 100 100" xml:space="preserve">
<style type="text/css">
   
    .fil0 {fill:#ffffff;fill-rule:nonzero}
   
  </style><path class="fil0"  d="M18.5,61.623h-15c-1.104,0-2,0.896-2,2v30c0,1.104,0.896,2,2,2h15c1.104,0,2-0.896,2-2v-30  C20.5,62.519,19.604,61.623,18.5,61.623z M16.5,91.623h-11v-26h11V91.623z"/><path class="fil0"  d="M44.5,39.789h-15c-1.104,0-2,0.896-2,2v51.834c0,1.104,0.896,2,2,2h15c1.104,0,2-0.896,2-2V41.789  C46.5,40.685,45.604,39.789,44.5,39.789z M42.5,91.623h-11V43.789h11V91.623z"/><path class="fil0"  d="M70.5,50.956h-15c-1.104,0-2,0.896-2,2v40.667c0,1.104,0.896,2,2,2h15c1.104,0,2-0.896,2-2V52.956  C72.5,51.852,71.604,50.956,70.5,50.956z M68.5,91.623h-11V54.956h11V91.623z"/><path class="fil0"  d="M96.5,24.165h-15c-1.104,0-2,0.896-2,2v67.459c0,1.104,0.896,2,2,2h15c1.104,0,2-0.896,2-2V26.165  C98.5,25.061,97.604,24.165,96.5,24.165z M94.5,91.624h-11V28.165h11V91.624z"/><path class="fil0"  d="M10.942,58.37c3.975,0,7.208-3.233,7.208-7.208c0-1.644-0.559-3.155-1.488-4.369l15.007-12.316  c1.317,1.417,3.19,2.311,5.273,2.311c2.265,0,4.286-1.052,5.608-2.69l13.209,6.175c-0.011,0.157-0.024,0.313-0.024,0.473  c0,3.975,3.233,7.208,7.207,7.208c3.975,0,7.209-3.233,7.209-7.208c0-0.827-0.147-1.618-0.404-2.358l14.549-21.303  c1.256,1.063,2.877,1.707,4.646,1.707c3.975,0,7.209-3.233,7.209-7.208s-3.234-7.208-7.209-7.208c-3.974,0-7.207,3.233-7.207,7.208  c0,0.625,0.089,1.229,0.239,1.809L67.237,34.971c-1.201-0.896-2.685-1.433-4.295-1.433c-2.386,0-4.498,1.17-5.811,2.962  l-13.033-6.094c0.031-0.271,0.051-0.546,0.051-0.826c0-3.975-3.233-7.208-7.208-7.208s-7.208,3.233-7.208,7.208  c0,0.417,0.043,0.822,0.111,1.219L13.317,44.364c-0.745-0.261-1.542-0.41-2.375-0.41c-3.975,0-7.208,3.233-7.208,7.208  S6.968,58.37,10.942,58.37z M88.942,8.376c1.77,0,3.209,1.439,3.209,3.208s-1.439,3.208-3.209,3.208  c-1.769,0-3.207-1.439-3.207-3.208S87.174,8.376,88.942,8.376z M62.942,37.538c1.77,0,3.209,1.439,3.209,3.208  s-1.439,3.208-3.209,3.208c-1.769,0-3.207-1.439-3.207-3.208S61.174,37.538,62.942,37.538z M36.942,26.372  c1.769,0,3.208,1.439,3.208,3.208s-1.439,3.208-3.208,3.208s-3.208-1.439-3.208-3.208S35.173,26.372,36.942,26.372z M10.942,47.954  c1.769,0,3.208,1.439,3.208,3.208c0,1.769-1.439,3.208-3.208,3.208s-3.208-1.439-3.208-3.208  C7.734,49.393,9.173,47.954,10.942,47.954z"/></svg>